<?xml version="1.0" encoding="utf-8"?>
<!-- Generator: Adobe Illustrator 25.2.3, SVG Export Plug-In . SVG Version: 6.00 Build 0)  -->
<svg version="1.1" id="Layer_1" xmlns="http://www.w3.org/2000/svg" xmlns:xlink="http://www.w3.org/1999/xlink" x="0px" y="0px"
	 viewBox="0 0 81 82" style="enable-background:new 0 0 81 82;" xml:space="preserve">
<style type="text/css">
	.st0{fill:none;stroke:#F0BC10;stroke-width:3;stroke-linecap:round;stroke-linejoin:round;stroke-miterlimit:10;}
</style>
<g>
	<path class="st0" d="M57.11,41.01c0,9.14-7.41,16.56-16.56,16.56C31.41,57.57,24,50.15,24,41.01s7.41-16.56,16.56-16.56
		C49.7,24.45,57.11,31.87,57.11,41.01z"/>
	<line class="st0" x1="57.87" y1="58.33" x2="61.97" y2="62.43"/>
	<line class="st0" x1="19.13" y1="19.59" x2="23.23" y2="23.69"/>
	<line class="st0" x1="23.23" y1="58.33" x2="19.13" y2="62.43"/>
	<line class="st0" x1="61.97" y1="19.59" x2="57.87" y2="23.69"/>
	<g>
		<line class="st0" x1="57.87" y1="23.69" x2="61.98" y2="19.59"/>
		<line class="st0" x1="19.13" y1="62.43" x2="23.23" y2="58.33"/>
		<line class="st0" x1="57.82" y1="58.38" x2="61.92" y2="62.48"/>
		<line class="st0" x1="19.08" y1="19.64" x2="23.18" y2="23.74"/>
		<line class="st0" x1="40.5" y1="67" x2="40.5" y2="72.21"/>
		<line class="st0" x1="40.5" y1="9.91" x2="40.5" y2="15.13"/>
		<line class="st0" x1="18.16" y1="41.06" x2="12.95" y2="41.06"/>
		<line class="st0" x1="68.05" y1="41.06" x2="62.83" y2="41.06"/>
	</g>
</g>
</svg>
