<?xml version="1.0" encoding="utf-8"?>
<!-- Generator: Adobe Illustrator 25.2.3, SVG Export Plug-In . SVG Version: 6.00 Build 0)  -->
<svg version="1.1" id="Layer_1" xmlns="http://www.w3.org/2000/svg" xmlns:xlink="http://www.w3.org/1999/xlink" x="0px" y="0px"
	 viewBox="0 0 81 82" style="enable-background:new 0 0 81 82;" xml:space="preserve">
<style type="text/css">
	.st0{fill:none;stroke:#F0BC10;stroke-width:3;stroke-linecap:round;stroke-linejoin:round;stroke-miterlimit:10;}
	.st1{fill:none;stroke:#B0BDBB;stroke-width:3;stroke-linecap:round;stroke-linejoin:round;stroke-miterlimit:10;}
</style>
<g>
	<path class="st0" d="M35.26,41.77c-0.27-0.4-0.53-0.82-0.76-1.25c-1-1.88-1.57-4.02-1.57-6.3c0-7.38,5.98-13.37,13.37-13.37
		c7.38,0,13.36,5.99,13.36,13.37c0,5.05-2.54,9-6.68,11.27"/>
	<line class="st0" x1="60.27" y1="48.21" x2="63.58" y2="51.52"/>
	<line class="st0" x1="29" y1="16.94" x2="32.31" y2="20.25"/>
	<line class="st0" x1="63.58" y1="16.94" x2="60.27" y2="20.25"/>
	<g>
		<line class="st0" x1="60.27" y1="20.25" x2="63.59" y2="16.94"/>
		<line class="st0" x1="60.23" y1="48.25" x2="63.54" y2="51.56"/>
		<line class="st0" x1="28.96" y1="16.98" x2="32.27" y2="20.29"/>
		<line class="st0" x1="46.25" y1="9.13" x2="46.25" y2="13.34"/>
		<line class="st0" x1="28.21" y1="34.27" x2="24.01" y2="34.27"/>
		<line class="st0" x1="68.49" y1="34.27" x2="64.27" y2="34.27"/>
	</g>
</g>
<path class="st1" d="M54.62,54.06c4.17,0.93,7.28,4.65,7.28,9.1c0,5.15-4.18,9.33-9.33,9.33H22.4c-5.15,0-9.33-3.67-9.33-8.82
	c0-4.4,3.05-8.1,7.16-9.08c-0.25-0.75-0.39-1.56-0.39-2.39c0-4.14,3.36-7.51,7.51-7.51c2.06,0,3.93,0.83,5.28,2.17l0,0
	c1.83-4.02,5.89-6.83,10.59-6.83c6.43,0,11.63,5.2,11.63,11.63C54.87,52.5,54.62,54.08,54.62,54.06L54.62,54.06z"/>
</svg>
