<?xml version="1.0" encoding="utf-8"?>
<!-- Generator: Adobe Illustrator 25.2.3, SVG Export Plug-In . SVG Version: 6.00 Build 0)  -->
<svg version="1.1" id="Layer_1" xmlns="http://www.w3.org/2000/svg" xmlns:xlink="http://www.w3.org/1999/xlink" x="0px" y="0px"
	 viewBox="0 0 81 82" style="enable-background:new 0 0 81 82;" xml:space="preserve">
<style type="text/css">
	.st0{fill:#F2F2F2;stroke:#29323C;stroke-width:3;stroke-linecap:round;stroke-linejoin:round;stroke-miterlimit:10;}
	.st1{fill:#29323C;stroke:#29323C;stroke-width:3;stroke-linecap:round;stroke-linejoin:round;stroke-miterlimit:10;}
</style>
<path class="st0" d="M51.82,27.09c-5.96,0-10.79-4.83-10.79-10.79c0-2.86,1.12-5.46,2.94-7.39c-7.2,0.85-12.8,6.97-12.8,14.4
	c0,8.01,6.49,14.52,14.51,14.52s14.52-6.5,14.52-14.52c0-0.07-0.01-0.14-0.01-0.2C58.21,25.55,55.2,27.09,51.82,27.09z"/>
<g>
	<path class="st1" d="M60.3,51.58c4.84,1.09,8.47,5.42,8.47,10.59c0,6-4.87,10.86-10.86,10.86H22.79c-6,0-10.86-4.27-10.86-10.26
		c0-5.13,3.56-9.44,8.35-10.57c-0.3-0.87-0.45-1.82-0.45-2.79c0-4.83,3.91-8.74,8.74-8.74c2.4,0,4.57,0.97,6.14,2.52l0,0
		c2.13-4.69,6.85-7.95,12.33-7.95c7.48,0,13.54,6.06,13.54,13.54C60.58,49.75,60.3,51.59,60.3,51.58L60.3,51.58z"/>
</g>
</svg>
