<?xml version="1.0" encoding="utf-8"?>
<!-- Generator: Adobe Illustrator 25.2.3, SVG Export Plug-In . SVG Version: 6.00 Build 0)  -->
<svg version="1.1" id="Layer_1" xmlns="http://www.w3.org/2000/svg" xmlns:xlink="http://www.w3.org/1999/xlink" x="0px" y="0px"
	 viewBox="0 0 88.96 82" style="enable-background:new 0 0 88.96 82;" xml:space="preserve">
<style type="text/css">
	.st0{fill:none;stroke:#B0BDBB;stroke-width:3;stroke-linecap:round;stroke-linejoin:round;stroke-miterlimit:10;}
	.st1{fill:none;stroke:#F0BC10;stroke-width:3;stroke-linecap:round;stroke-linejoin:round;stroke-miterlimit:10;}
</style>
<g>
	<path class="st0" d="M52.22,45.63c1.58-1.94,3.98-3.17,6.67-3.17c4.75,0,8.6,3.85,8.6,8.6c-0.01,0.62-0.19,1.78-0.19,1.78l0,0
		c3.08,0.69,5.38,3.44,5.38,6.73c0,3.81-3.09,6.89-6.89,6.89h-3.2"/>
</g>
<path class="st0" d="M55.46,56.05c3.95,0.89,6.9,4.41,6.9,8.63c0,4.89-3.96,8.84-8.84,8.84h-28.6c-4.89,0-8.84-3.48-8.84-8.36
	c0-4.18,2.9-7.69,6.8-8.61c-0.24-0.71-0.37-1.48-0.37-2.27c0-3.94,3.18-7.12,7.12-7.12c1.96,0,3.72,0.79,5.01,2.05l0,0
	c1.73-3.82,5.58-6.48,10.05-6.48c6.09,0,11.03,4.93,11.03,11.03C55.7,54.56,55.46,56.05,55.46,56.05L55.46,56.05z"/>
<g>
	<path class="st1" d="M60.13,32.36c-1.84,5.67-7.92,8.78-13.59,6.94s-8.77-7.93-6.93-13.59s7.92-8.78,13.59-6.94
		C58.87,20.6,61.97,26.69,60.13,32.36z"/>
	<line class="st1" x1="40.89" y1="11.45" x2="42.61" y2="14.81"/>
	<line class="st1" x1="67.45" y1="20.05" x2="64.09" y2="21.77"/>
	<g>
		<line class="st1" x1="64.09" y1="21.77" x2="67.46" y2="20.06"/>
		<line class="st1" x1="32.28" y1="38.01" x2="35.65" y2="36.29"/>
		<line class="st1" x1="40.85" y1="11.47" x2="42.57" y2="14.83"/>
		<line class="st1" x1="56.09" y1="9.74" x2="55.04" y2="12.97"/>
		<line class="st1" x1="35.98" y1="24.56" x2="32.75" y2="23.52"/>
		<line class="st1" x1="66.91" y1="34.59" x2="63.67" y2="33.54"/>
	</g>
</g>
</svg>
