<?xml version="1.0" encoding="utf-8"?>
<!-- Generator: Adobe Illustrator 25.2.3, SVG Export Plug-In . SVG Version: 6.00 Build 0)  -->
<svg version="1.1" id="Layer_1" xmlns="http://www.w3.org/2000/svg" xmlns:xlink="http://www.w3.org/1999/xlink" x="0px" y="0px"
	 viewBox="0 0 81 82" style="enable-background:new 0 0 81 82;" xml:space="preserve">
<style type="text/css">
	.st0{fill:#464E57;stroke:#29323C;stroke-width:2.97;stroke-linecap:round;stroke-linejoin:round;stroke-miterlimit:10;}
	.st1{fill:#29323C;stroke:#29323C;stroke-width:2.97;stroke-linecap:round;stroke-linejoin:round;stroke-miterlimit:10;}
	.st2{fill:#FFFFFF;stroke:#29323C;stroke-width:3;stroke-linecap:round;stroke-linejoin:round;stroke-miterlimit:10;}
</style>
<g>
	<path class="st0" d="M62.44,53.12c3.05,0.68,5.33,3.41,5.33,6.66c0,3.77-3.06,6.82-6.82,6.82H38.87c-3.77,0-6.82-2.68-6.82-6.45
		c0-3.23,2.24-5.93,5.25-6.64c-0.19-0.54-0.29-1.14-0.29-1.75c0-3.04,2.46-5.49,5.49-5.49c1.5,0,2.87,0.61,3.86,1.58l0,0
		c1.34-2.95,4.31-5,7.75-5c4.7,0,8.51,3.81,8.51,8.51C62.62,51.97,62.44,53.12,62.44,53.12L62.44,53.12z"/>
</g>
<path class="st1" d="M50.72,56.31c3.91,0.88,6.83,4.37,6.83,8.54c0,4.84-3.92,8.75-8.75,8.75H20.48c-4.84,0-8.75-3.45-8.75-8.28
	c0-4.14,2.87-7.61,6.73-8.52c-0.24-0.7-0.37-1.47-0.37-2.25c0-3.9,3.15-7.05,7.05-7.05c1.94,0,3.68,0.78,4.96,2.03l0,0
	c1.71-3.78,5.52-6.42,9.95-6.42c6.03,0,10.92,4.88,10.92,10.92C50.96,54.83,50.72,56.31,50.72,56.31L50.72,56.31z"/>
<path class="st2" d="M44.08,9.82c-7.48,0.88-13.29,7.24-13.29,14.96c0,8.33,6.75,15.08,15.07,15.08s15.08-6.75,15.08-15.08
	c0-0.07-0.01-0.14-0.01-0.21c-2.06,2.52-5.18,4.13-8.69,4.13c-6.19,0-11.21-5.02-11.21-11.21C41.03,14.53,42.19,11.83,44.08,9.82"/>
</svg>
