<?xml version="1.0" encoding="utf-8"?>
<!-- Generator: Adobe Illustrator 25.2.3, SVG Export Plug-In . SVG Version: 6.00 Build 0)  -->
<svg version="1.1" id="Layer_1" xmlns="http://www.w3.org/2000/svg" xmlns:xlink="http://www.w3.org/1999/xlink" x="0px" y="0px"
	 viewBox="0 0 81 82" style="enable-background:new 0 0 81 82;" xml:space="preserve">
<style type="text/css">
	.st0{fill:#464E57;stroke:#29323C;stroke-width:2.97;stroke-linecap:round;stroke-linejoin:round;stroke-miterlimit:10;}
	.st1{fill:#29323C;stroke:#29323C;stroke-width:2.9403;stroke-linecap:round;stroke-linejoin:round;stroke-miterlimit:10;}
	.st2{fill:#FFFFFF;stroke:#29323C;stroke-width:3;stroke-linecap:round;stroke-linejoin:round;stroke-miterlimit:10;}
</style>
<g>
	<path class="st0" d="M62.88,52.61c3.05,0.68,5.33,3.41,5.33,6.66c0,3.77-3.06,6.82-6.82,6.82H39.3c-3.77,0-6.82-2.68-6.82-6.45
		c0-3.23,2.24-5.93,5.25-6.64c-0.19-0.54-0.29-1.14-0.29-1.75c0-3.04,2.46-5.49,5.49-5.49c1.5,0,2.87,0.61,3.86,1.58l0,0
		c1.34-2.95,4.31-5,7.75-5c4.7,0,8.51,3.81,8.51,8.51C63.05,51.46,62.88,52.62,62.88,52.61L62.88,52.61z"/>
</g>
<path class="st1" d="M50.78,55.95c3.87,0.87,6.76,4.32,6.76,8.46c0,4.79-3.88,8.66-8.66,8.66H20.85c-4.79,0-8.66-3.41-8.66-8.19
	c0-4.1,2.84-7.54,6.66-8.44c-0.24-0.7-0.36-1.45-0.36-2.22c0-3.86,3.12-6.98,6.98-6.98c1.92,0,3.65,0.77,4.91,2.01l0,0
	c1.7-3.74,5.47-6.35,9.85-6.35c5.97,0,10.81,4.83,10.81,10.81C51.02,54.49,50.78,55.96,50.78,55.95L50.78,55.95z"/>
<path class="st2" d="M52.7,28.19c-6.19,0-11.21-5.02-11.21-11.21c0-2.97,1.17-5.67,3.05-7.68c-7.48,0.88-13.29,7.24-13.29,14.96
	c0,8.33,6.75,15.08,15.07,15.08S61.4,32.59,61.4,24.26c0-0.07-0.01-0.14-0.01-0.21C59.33,26.58,56.21,28.19,52.7,28.19z"/>
</svg>
