<?xml version="1.0" encoding="utf-8"?>
<!-- Generator: Adobe Illustrator 25.2.3, SVG Export Plug-In . SVG Version: 6.00 Build 0)  -->
<svg version="1.1" id="Layer_1" xmlns="http://www.w3.org/2000/svg" xmlns:xlink="http://www.w3.org/1999/xlink" x="0px" y="0px"
	 viewBox="0 0 81 82" style="enable-background:new 0 0 81 82;" xml:space="preserve">
<style type="text/css">
	.st0{fill:none;stroke:#F0BC10;stroke-width:2.6542;stroke-linecap:round;stroke-linejoin:round;stroke-miterlimit:10;}
	.st1{fill:none;stroke:#B0BDBB;stroke-width:2.8802;stroke-linecap:round;stroke-linejoin:round;stroke-miterlimit:10;}
</style>
<g>
	<path class="st0" d="M43.19,22.86c1.39-1.56,3.28-2.67,5.49-3.06c5.22-0.92,10.2,2.56,11.12,7.78c0.76,4.32-1.49,8.47-5.24,10.3"/>
	<line class="st0" x1="50.38" y1="13.18" x2="50.35" y2="9.45"/>
	<line class="st0" x1="64.96" y1="30.7" x2="68.68" y2="30.68"/>
	<line class="st0" x1="62.26" y1="17.93" x2="64.88" y2="15.27"/>
	<line class="st0" x1="37.57" y1="17.93" x2="34.95" y2="15.27"/>
	<line class="st0" x1="63.42" y1="44.19" x2="60.8" y2="41.54"/>
	<line class="st1" x1="19.6" y1="59.47" x2="18.64" y2="66.27"/>
	<line class="st1" x1="29.57" y1="59.47" x2="27.65" y2="72.99"/>
	<line class="st1" x1="39.88" y1="59.47" x2="37.96" y2="72.99"/>
	<line class="st1" x1="49.85" y1="59.47" x2="48.89" y2="66.27"/>
</g>
<path class="st1" d="M49.95,35.65c3.7,0.83,6.46,4.13,6.46,8.07c0,4.57-3.71,8.28-8.28,8.28H21.37c-4.57,0-8.28-3.25-8.28-7.82
	c0-3.91,2.71-7.19,6.36-8.05c-0.22-0.66-0.35-1.38-0.35-2.12c0-3.68,2.99-6.66,6.66-6.66c1.82,0,3.49,0.74,4.69,1.93l0,0
	c1.62-3.57,5.22-6.06,9.4-6.06c5.7,0,10.32,4.62,10.32,10.32C50.17,34.25,49.95,35.65,49.95,35.65L49.95,35.65z"/>
</svg>
