<?xml version="1.0" encoding="utf-8"?>
<!-- Generator: Adobe Illustrator 25.2.3, SVG Export Plug-In . SVG Version: 6.00 Build 0)  -->
<svg version="1.1" id="Layer_1" xmlns="http://www.w3.org/2000/svg" xmlns:xlink="http://www.w3.org/1999/xlink" x="0px" y="0px"
	 viewBox="0 0 81 82" style="enable-background:new 0 0 81 82;" xml:space="preserve">
<style type="text/css">
	.st0{fill:#FFFFFF;stroke:#29323C;stroke-width:2.7982;stroke-linecap:round;stroke-linejoin:round;stroke-miterlimit:10;}
	.st1{fill:none;stroke:#29323C;stroke-width:2.7982;stroke-linecap:round;stroke-linejoin:round;stroke-miterlimit:10;}
	.st2{fill:#29323C;stroke:#29323C;stroke-width:2.7982;stroke-linecap:round;stroke-linejoin:round;stroke-miterlimit:10;}
</style>
<g>
	<path class="st0" d="M55.45,33.04c6.57,0,12.84-5.36,12.84-11.99c0-0.06-0.01-0.11-0.01-0.17c-1.63,2-4.09,3.29-6.86,3.29
		c-4.89,0-8.85-3.99-8.85-8.91c0-2.37,0.92-4.51,2.42-6.1c-5.91,0.7-10.49,4.82-10.49,10.96"/>
	<line class="st1" x1="22.64" y1="59.9" x2="21.71" y2="66.53"/>
	<line class="st1" x1="32.28" y1="59.9" x2="30.42" y2="73.08"/>
	<line class="st1" x1="42.26" y1="59.9" x2="40.4" y2="73.08"/>
	<line class="st1" x1="51.91" y1="59.9" x2="50.98" y2="66.53"/>
</g>
<path class="st2" d="M53.64,35.01c4.09,0.93,7.15,4.61,7.15,9c0,5.1-4.11,9.23-9.16,9.23H21.99c-5.07,0-9.16-3.63-9.16-8.72
	c0-4.36,3-8.02,7.05-8.99c-0.25-0.75-0.38-1.54-0.38-2.37c0-4.11,3.3-7.43,7.38-7.43c2.03,0,3.86,0.82,5.19,2.14l0,0
	c1.79-3.99,5.78-6.76,10.41-6.76c6.31,0,11.43,5.15,11.43,11.51C53.89,33.45,53.64,35.01,53.64,35.01L53.64,35.01z"/>
</svg>
