<?xml version="1.0" encoding="utf-8"?>
<!-- Generator: Adobe Illustrator 25.2.3, SVG Export Plug-In . SVG Version: 6.00 Build 0)  -->
<svg version="1.1" id="Layer_1" xmlns="http://www.w3.org/2000/svg" xmlns:xlink="http://www.w3.org/1999/xlink" x="0px" y="0px"
	 viewBox="0 0 81 82" style="enable-background:new 0 0 81 82;" xml:space="preserve">
<style type="text/css">
	.st0{fill:none;stroke:#F0BC10;stroke-width:2.6125;stroke-linecap:round;stroke-linejoin:round;stroke-miterlimit:10;}
	.st1{fill:#B0BDBB;stroke:#B0BDBB;stroke-miterlimit:10;}
	.st2{fill:none;stroke:#B0BDBB;stroke-width:3;stroke-linecap:round;stroke-linejoin:round;stroke-miterlimit:10;}
</style>
<g>
	<path class="st0" d="M42.81,21.74c1.37-1.53,3.23-2.63,5.41-3.01c5.14-0.91,10.04,2.52,10.95,7.65c0.75,4.25-1.46,8.33-5.16,10.14"
		/>
	<line class="st0" x1="49.89" y1="12.21" x2="49.86" y2="8.54"/>
	<line class="st0" x1="64.57" y1="29.46" x2="68.24" y2="29.44"/>
	<line class="st0" x1="61.58" y1="16.88" x2="64.16" y2="14.27"/>
	<line class="st0" x1="37.28" y1="16.88" x2="34.7" y2="14.27"/>
	<line class="st0" x1="62.72" y1="42.74" x2="60.14" y2="40.13"/>
	<path class="st1" d="M20.65,59.39c3.45,3.45,3.58,7.08,3.58,7.08c0,1.98-1.61,3.58-3.58,3.58c-1.98,0-3.58-1.61-3.58-3.58
		C17.06,66.46,17.2,62.83,20.65,59.39z"/>
	<path class="st1" d="M48.31,59.39c3.45,3.45,3.59,7.08,3.59,7.08c0,1.98-1.61,3.58-3.59,3.58s-3.58-1.61-3.58-3.58
		C44.73,66.47,44.87,62.84,48.31,59.39z"/>
	<path class="st1" d="M34.48,62.75c3.45,3.45,3.58,7.08,3.58,7.08c0,1.98-1.61,3.58-3.58,3.58c-1.98,0-3.58-1.61-3.58-3.58
		C30.9,69.83,31.03,66.2,34.48,62.75z"/>
</g>
<path class="st2" d="M50.84,36.14c3.85,0.86,6.73,4.3,6.73,8.41c0,4.76-3.86,8.62-8.62,8.62H21.07c-4.76,0-8.62-3.39-8.62-8.15
	c0-4.07,2.82-7.49,6.62-8.39c-0.23-0.69-0.36-1.44-0.36-2.21c0-3.83,3.11-6.94,6.94-6.94c1.9,0,3.63,0.77,4.88,2.01l0,0
	c1.69-3.72,5.44-6.31,9.79-6.31c5.94,0,10.75,4.81,10.75,10.75C51.07,34.68,50.84,36.14,50.84,36.14L50.84,36.14z"/>
</svg>
