<?xml version="1.0" encoding="utf-8"?>
<!-- Generator: Adobe Illustrator 25.2.3, SVG Export Plug-In . SVG Version: 6.00 Build 0)  -->
<svg version="1.1" id="Layer_1" xmlns="http://www.w3.org/2000/svg" xmlns:xlink="http://www.w3.org/1999/xlink" x="0px" y="0px"
	 viewBox="0 0 81 82" style="enable-background:new 0 0 81 82;" xml:space="preserve">
<style type="text/css">
	.st0{fill:#FFFFFF;stroke:#29323C;stroke-width:2.8066;stroke-linecap:round;stroke-linejoin:round;stroke-miterlimit:10;}
	.st1{fill:#29323C;stroke:#29323C;stroke-width:2.8066;stroke-linecap:round;stroke-linejoin:round;stroke-miterlimit:10;}
</style>
<g>
	<path class="st0" d="M55.61,33.15c6.61,0,12.92-5.36,12.92-11.98c0-0.06-0.01-0.11-0.01-0.17c-1.64,2-4.12,3.28-6.9,3.28
		c-4.92,0-8.91-3.99-8.91-8.91c0-2.37,0.93-4.51,2.43-6.1c-5.95,0.7-10.56,4.82-10.56,10.96"/>
</g>
<path class="st1" d="M53.8,35.12c4.12,0.93,7.19,4.6,7.19,9c0,5.1-4.14,9.22-9.22,9.22H21.93c-5.1,0-9.22-3.63-9.22-8.72
	c0-4.36,3.02-8.02,7.09-8.98c-0.25-0.75-0.38-1.54-0.38-2.37c0-4.11,3.32-7.43,7.43-7.43c2.04,0,3.88,0.82,5.22,2.14l0,0
	c1.81-3.99,5.82-6.75,10.48-6.75c6.35,0,11.51,5.15,11.51,11.51C54.04,33.56,53.8,35.12,53.8,35.12L53.8,35.12z"/>
<g>
	<g>
		<path class="st1" d="M23.32,59.68c3.23,3.23,3.35,6.62,3.35,6.62c0,1.85-1.51,3.35-3.35,3.35c-1.85,0-3.35-1.51-3.35-3.35
			C19.97,66.3,20.1,62.9,23.32,59.68z"/>
		<path class="st1" d="M49.21,59.68c3.23,3.23,3.36,6.62,3.36,6.62c0,1.85-1.51,3.35-3.36,3.35c-1.85,0-3.35-1.51-3.35-3.35
			C45.86,66.3,45.99,62.9,49.21,59.68z"/>
		<path class="st1" d="M36.27,62.82c3.23,3.23,3.35,6.62,3.35,6.62c0,1.85-1.51,3.35-3.35,3.35c-1.85,0-3.35-1.51-3.35-3.35
			C32.91,69.45,33.04,66.04,36.27,62.82z"/>
	</g>
</g>
</svg>
