<?xml version="1.0" encoding="utf-8"?>
<!-- Generator: Adobe Illustrator 25.2.3, SVG Export Plug-In . SVG Version: 6.00 Build 0)  -->
<svg version="1.1" id="Layer_1" xmlns="http://www.w3.org/2000/svg" xmlns:xlink="http://www.w3.org/1999/xlink" x="0px" y="0px"
	 viewBox="0 0 81 82" style="enable-background:new 0 0 81 82;" xml:space="preserve">
<style type="text/css">
	.st0{fill:none;stroke:#F0BC10;stroke-width:2.6057;stroke-linecap:round;stroke-linejoin:round;stroke-miterlimit:10;}
	.st1{fill:#B0BDBB;stroke:#B0BDBB;stroke-width:3.1225;stroke-linecap:round;stroke-linejoin:round;stroke-miterlimit:10;}
	.st2{fill:none;stroke:#B0BDBB;stroke-width:3;stroke-linecap:round;stroke-linejoin:round;stroke-miterlimit:10;}
</style>
<g>
	<path class="st0" d="M43.47,21.68c1.36-1.53,3.22-2.62,5.39-3.01c5.12-0.9,10.01,2.51,10.92,7.63c0.75,4.24-0.86,8-4.54,9.8"/>
	<line class="st0" x1="50.52" y1="12.17" x2="50.49" y2="8.51"/>
	<line class="st0" x1="64.9" y1="29.37" x2="68.55" y2="29.35"/>
	<line class="st0" x1="62.18" y1="16.83" x2="64.75" y2="14.22"/>
	<line class="st0" x1="37.94" y1="16.83" x2="35.37" y2="14.22"/>
	<line class="st0" x1="63.32" y1="42.62" x2="60.75" y2="40.01"/>
	<polygon class="st1" points="30.61,51.35 23.23,61.33 30.31,61.43 22.13,73.11 46.41,58.55 37.89,58.5 42.4,51.35 	"/>
	<path class="st2" d="M51.34,34.19c3.85,0.86,6.73,4.3,6.73,8.41c0,4.76-3.86,8.62-8.62,8.62H21.57c-4.76,0-8.62-3.39-8.62-8.15
		c0-4.07,2.82-7.49,6.62-8.39c-0.23-0.69-0.36-1.44-0.36-2.21c0-3.83,3.11-6.94,6.94-6.94c1.9,0,4.88,2.01,4.88,2.01l0,0
		c1.69-3.72,5.44-6.31,9.79-6.31c5.94,0,10.75,4.81,10.75,10.75C51.57,32.73,51.34,34.19,51.34,34.19L51.34,34.19z"/>
</g>
</svg>
