<?xml version="1.0" encoding="utf-8"?>
<!-- Generator: Adobe Illustrator 25.2.3, SVG Export Plug-In . SVG Version: 6.00 Build 0)  -->
<svg version="1.1" id="Layer_1" xmlns="http://www.w3.org/2000/svg" xmlns:xlink="http://www.w3.org/1999/xlink" x="0px" y="0px"
	 viewBox="0 0 81 82" style="enable-background:new 0 0 81 82;" xml:space="preserve">
<style type="text/css">
	.st0{fill:#FFFFFF;stroke:#29323C;stroke-width:2.7807;stroke-linecap:round;stroke-linejoin:round;stroke-miterlimit:10;}
	.st1{fill:#29323C;stroke:#29323C;stroke-width:1.0878;stroke-linecap:round;stroke-linejoin:round;stroke-miterlimit:10;}
	.st2{fill:#29323C;stroke:#29323C;stroke-width:2.7807;stroke-linecap:round;stroke-linejoin:round;stroke-miterlimit:10;}
</style>
<path class="st0" d="M55.49,32.58c6.55,0,12.8-5.31,12.8-11.87c0-0.06-0.01-0.11-0.01-0.17c-1.62,1.98-4.08,3.25-6.84,3.25
	c-4.88,0-8.82-3.95-8.82-8.82c0-2.35,0.92-4.47,2.41-6.04c-5.9,0.7-10.48,4.78-10.48,10.86"/>
<polygon class="st1" points="32.11,51.96 24.26,62.2 31.79,62.3 23.08,74.27 48.93,59.34 39.86,59.3 44.66,51.96 "/>
<path class="st2" d="M53.69,34.52c4.08,0.92,7.13,4.56,7.13,8.92c0,5.05-4.1,9.14-9.14,9.14H22.12c-5.05,0-9.14-3.6-9.14-8.64
	c0-4.32,2.99-7.94,7.03-8.9c-0.25-0.73-0.38-1.53-0.38-2.35c0-4.07,3.29-7.36,7.36-7.36c2.02,0,3.85,0.82,5.17,2.12l0,0
	c1.79-3.95,5.77-6.69,10.38-6.69c6.29,0,11.4,5.1,11.4,11.4C53.94,32.99,53.69,34.53,53.69,34.52L53.69,34.52z"/>
</svg>
