<?xml version="1.0" encoding="utf-8"?>
<!-- Generator: Adobe Illustrator 25.2.3, SVG Export Plug-In . SVG Version: 6.00 Build 0)  -->
<svg version="1.1" id="Layer_1" xmlns="http://www.w3.org/2000/svg" xmlns:xlink="http://www.w3.org/1999/xlink" x="0px" y="0px"
	 viewBox="0 0 81 82" style="enable-background:new 0 0 81 82;" xml:space="preserve">
<style type="text/css">
	.st0{fill:none;stroke:#F0BC10;stroke-width:2.7122;stroke-linecap:round;stroke-linejoin:round;stroke-miterlimit:10;}
	.st1{fill:none;stroke:#B0BDBB;stroke-width:2;stroke-linecap:round;stroke-linejoin:round;stroke-miterlimit:10;}
	.st2{fill:none;stroke:#B0BDBB;stroke-width:3;stroke-linecap:round;stroke-linejoin:round;stroke-miterlimit:10;}
</style>
<g>
	<g>
		<path class="st0" d="M40.77,23.42c1.32-1.67,3.18-2.93,5.42-3.46c5.27-1.26,10.56,1.98,11.82,7.25c1.04,4.36-1,8.73-4.71,10.83"/>
		<line class="st0" x1="47.5" y1="13.11" x2="47.25" y2="9.31"/>
		<line class="st0" x1="64.61" y1="30.03" x2="68.41" y2="29.77"/>
		<line class="st0" x1="59.91" y1="17.22" x2="62.42" y2="14.36"/>
		<line class="st0" x1="34.72" y1="18.73" x2="31.89" y2="16.2"/>
		<line class="st0" x1="62.7" y1="43.94" x2="59.87" y2="41.4"/>
		<g>
			<line class="st1" x1="35.14" y1="48.57" x2="35.14" y2="73.32"/>
			<line class="st1" x1="47.52" y1="60.95" x2="22.77" y2="60.95"/>
			<polyline class="st1" points="24.77,57.37 28.35,60.95 24.77,64.53 			"/>
			<polyline class="st1" points="45.52,64.53 41.93,60.95 45.52,57.37 			"/>
			<polyline class="st1" points="31.56,71.32 35.14,67.74 38.72,71.32 			"/>
			<polyline class="st1" points="38.72,50.57 35.14,54.16 31.56,50.57 			"/>
			<line class="st1" x1="43.89" y1="52.2" x2="26.39" y2="69.7"/>
			<line class="st1" x1="43.89" y1="69.7" x2="26.39" y2="52.2"/>
		</g>
	</g>
	<path class="st2" d="M18.84,54.59c-3.49-0.98-6.02-3.94-6.02-7.8c0-4.07,2.82-7.49,6.62-8.39c-0.23-0.69-0.36-1.44-0.36-2.21
		c0-3.83,3.11-6.94,6.94-6.94c1.9,0,3.63,0.77,4.88,2l0,0c1.69-3.72,5.44-6.31,9.79-6.31c5.94,0,10.75,4.81,10.75,10.75
		c0,0.76-0.23,2.22-0.23,2.22l0,0c3.85,0.86,6.73,4.3,6.73,8.41c0,3.77-2.42,6.97-5.79,8.15"/>
</g>
</svg>
