<?xml version="1.0" encoding="utf-8"?>
<!-- Generator: Adobe Illustrator 25.2.3, SVG Export Plug-In . SVG Version: 6.00 Build 0)  -->
<svg version="1.1" id="Layer_1" xmlns="http://www.w3.org/2000/svg" xmlns:xlink="http://www.w3.org/1999/xlink" x="0px" y="0px"
	 viewBox="0 0 81 82" style="enable-background:new 0 0 81 82;" xml:space="preserve">
<style type="text/css">
	.st0{fill:none;stroke:#F0BC10;stroke-width:2.4001;stroke-linecap:round;stroke-linejoin:round;stroke-miterlimit:10;}
	.st1{fill:none;stroke:#B0BDBB;stroke-width:3;stroke-linecap:round;stroke-linejoin:round;stroke-miterlimit:10;}
</style>
<g>
	<g>
		<path class="st0" d="M43.95,21.19c1.26-1.41,2.97-2.42,4.97-2.77c4.72-0.83,9.22,2.31,10.06,7.03c0.69,3.9-1.34,7.66-4.74,9.31"/>
		<line class="st0" x1="50.45" y1="12.44" x2="50.43" y2="9.07"/>
		<line class="st0" x1="64.67" y1="28.29" x2="68.04" y2="28.27"/>
		<line class="st0" x1="61.19" y1="16.73" x2="63.56" y2="14.34"/>
		<line class="st0" x1="38.87" y1="16.73" x2="36.5" y2="14.34"/>
		<line class="st0" x1="62.24" y1="40.48" x2="59.87" y2="38.09"/>
	</g>
</g>
<path class="st1" d="M50.99,35.31c3.79,0.85,6.62,4.23,6.62,8.28c0,4.68-3.8,8.48-8.48,8.48H21.7c-4.69,0-8.48-3.33-8.48-8.02
	c0-4.01,2.78-7.37,6.51-8.25c-0.23-0.68-0.36-1.42-0.36-2.18c0-3.77,3.06-6.83,6.83-6.83c1.87,0,3.57,0.75,4.8,1.97l0,0
	c1.66-3.66,5.35-6.21,9.63-6.21c5.84,0,10.57,4.73,10.57,10.57C51.21,33.88,50.99,35.32,50.99,35.31L50.99,35.31z"/>
<line class="st1" x1="45.65" y1="58.81" x2="24.61" y2="58.81"/>
<line class="st1" x1="41.35" y1="65.74" x2="29.77" y2="65.74"/>
<line class="st1" x1="43.93" y1="72.67" x2="37.51" y2="72.67"/>
</svg>
