<?xml version="1.0" encoding="utf-8"?>
<!-- Generator: Adobe Illustrator 25.2.3, SVG Export Plug-In . SVG Version: 6.00 Build 0)  -->
<svg version="1.1" id="Layer_1" xmlns="http://www.w3.org/2000/svg" xmlns:xlink="http://www.w3.org/1999/xlink" x="0px" y="0px"
	 viewBox="0 0 81 82" style="enable-background:new 0 0 81 82;" xml:space="preserve">
<style type="text/css">
	.st0{fill:#FFFFFF;stroke:#29323C;stroke-width:3;stroke-linecap:round;stroke-linejoin:round;stroke-miterlimit:10;}
	.st1{fill:#29323C;stroke:#29323C;stroke-width:3;stroke-linecap:round;stroke-linejoin:round;stroke-miterlimit:10;}
	.st2{fill:none;stroke:#29323C;stroke-width:3;stroke-linecap:round;stroke-linejoin:round;stroke-miterlimit:10;}
</style>
<g>
	<g>
		<path class="st0" d="M41.51,21.01c0-6.56,4.94-10.96,11.29-11.71c-1.61,1.7-2.6,4-2.6,6.52c0,5.26,4.26,9.52,9.52,9.52
			c2.98,0,5.64-1.37,7.38-3.51c0,0.06,0.01,0.12,0.01,0.18c0,7.07-6.73,12.81-13.81,12.81"/>
	</g>
	<path class="st1" d="M51.33,34.65c3.79,0.85,6.62,4.23,6.62,8.28c0,4.68-3.8,8.48-8.48,8.48H22.05c-4.69,0-8.48-3.33-8.48-8.02
		c0-4.01,2.78-7.37,6.51-8.25c-0.23-0.68-0.36-1.42-0.36-2.18c0-3.77,3.06-6.83,6.83-6.83c1.87,0,3.57,0.75,4.8,1.97l0,0
		c1.66-3.66,5.35-6.21,9.63-6.21c5.84,0,10.57,4.73,10.57,10.57C51.56,33.22,51.33,34.65,51.33,34.65L51.33,34.65z"/>
	<line class="st2" x1="46" y1="58.14" x2="24.96" y2="58.14"/>
	<line class="st2" x1="41.7" y1="65.08" x2="30.12" y2="65.08"/>
	<line class="st2" x1="44.28" y1="72.01" x2="37.86" y2="72.01"/>
</g>
</svg>
