<?xml version="1.0" encoding="utf-8"?>
<!-- Generator: Adobe Illustrator 25.2.3, SVG Export Plug-In . SVG Version: 6.00 Build 0)  -->
<svg version="1.1" xmlns="http://www.w3.org/2000/svg" xmlns:xlink="http://www.w3.org/1999/xlink" x="0px" y="0px"
	 viewBox="0 0 208.54 363.98" style="enable-background:new 0 0 208.54 363.98;" xml:space="preserve">
<style type="text/css">
	.st0{fill:none;stroke:#29323C;stroke-width:7;stroke-linecap:round;stroke-linejoin:round;stroke-miterlimit:10;}
	.st1{fill:none;stroke:#28313B;stroke-width:6.7444;stroke-linecap:round;stroke-linejoin:round;stroke-miterlimit:10;}
	.st2{fill:none;stroke:#27303A;stroke-width:6.4888;stroke-linecap:round;stroke-linejoin:round;stroke-miterlimit:10;}
	.st3{fill:none;stroke:#262F39;stroke-width:6.2332;stroke-linecap:round;stroke-linejoin:round;stroke-miterlimit:10;}
	.st4{fill:none;stroke:#252E38;stroke-width:5.9776;stroke-linecap:round;stroke-linejoin:round;stroke-miterlimit:10;}
	.st5{fill:none;stroke:#242D38;stroke-width:5.722;stroke-linecap:round;stroke-linejoin:round;stroke-miterlimit:10;}
	.st6{fill:none;stroke:#232C37;stroke-width:5.4664;stroke-linecap:round;stroke-linejoin:round;stroke-miterlimit:10;}
	.st7{fill:none;stroke:#222C36;stroke-width:5.2109;stroke-linecap:round;stroke-linejoin:round;stroke-miterlimit:10;}
	.st8{fill:none;stroke:#212B35;stroke-width:4.9553;stroke-linecap:round;stroke-linejoin:round;stroke-miterlimit:10;}
	.st9{fill:none;stroke:#202A34;stroke-width:4.6997;stroke-linecap:round;stroke-linejoin:round;stroke-miterlimit:10;}
	.st10{fill:none;stroke:#1F2933;stroke-width:4.4441;stroke-linecap:round;stroke-linejoin:round;stroke-miterlimit:10;}
	.st11{fill:none;stroke:#1E2832;stroke-width:4.1885;stroke-linecap:round;stroke-linejoin:round;stroke-miterlimit:10;}
	.st12{fill:none;stroke:#1D2731;stroke-width:3.9329;stroke-linecap:round;stroke-linejoin:round;stroke-miterlimit:10;}
	.st13{fill:none;stroke:#1C2630;stroke-width:3.6773;stroke-linecap:round;stroke-linejoin:round;stroke-miterlimit:10;}
	.st14{fill:none;stroke:#1C2530;stroke-width:3.4217;stroke-linecap:round;stroke-linejoin:round;stroke-miterlimit:10;}
	.st15{fill:none;stroke:#1B242F;stroke-width:3.1661;stroke-linecap:round;stroke-linejoin:round;stroke-miterlimit:10;}
	.st16{fill:none;stroke:#1A232E;stroke-width:2.9105;stroke-linecap:round;stroke-linejoin:round;stroke-miterlimit:10;}
	.st17{fill:none;stroke:#19222D;stroke-width:2.6549;stroke-linecap:round;stroke-linejoin:round;stroke-miterlimit:10;}
	.st18{fill:none;stroke:#18212C;stroke-width:2.3993;stroke-linecap:round;stroke-linejoin:round;stroke-miterlimit:10;}
	.st19{fill:none;stroke:#17202B;stroke-width:2.1437;stroke-linecap:round;stroke-linejoin:round;stroke-miterlimit:10;}
	.st20{fill:none;stroke:#161F2A;stroke-width:1.8881;stroke-linecap:round;stroke-linejoin:round;stroke-miterlimit:10;}
	.st21{fill:none;stroke:#151F29;stroke-width:1.6326;stroke-linecap:round;stroke-linejoin:round;stroke-miterlimit:10;}
	.st22{fill:none;stroke:#141E28;stroke-width:1.377;stroke-linecap:round;stroke-linejoin:round;stroke-miterlimit:10;}
	.st23{fill:none;stroke:#131D28;stroke-width:1.1214;stroke-linecap:round;stroke-linejoin:round;stroke-miterlimit:10;}
	.st24{fill:none;stroke:#121C27;stroke-width:0.8658;stroke-linecap:round;stroke-linejoin:round;stroke-miterlimit:10;}
	.st25{fill:none;stroke:#111B26;stroke-width:0.6102;stroke-linecap:round;stroke-linejoin:round;stroke-miterlimit:10;}
	.st26{fill:none;stroke:#101A25;stroke-width:0.3546;stroke-linecap:round;stroke-linejoin:round;stroke-miterlimit:10;}
	.st27{fill:none;stroke:#0F1924;stroke-width:0.099;stroke-linecap:round;stroke-linejoin:round;stroke-miterlimit:10;}
	.st28{fill:#33434F;}
	.st29{fill:#858F96;}
	.st30{fill:#D7DADC;}
	.st31{fill:none;stroke:#29323C;stroke-width:2;stroke-linecap:round;stroke-linejoin:round;stroke-miterlimit:10;}
	.st32{fill:#29323C;stroke:#29323C;stroke-linecap:round;stroke-linejoin:round;stroke-miterlimit:10;}
	.st33{fill:#6BDE85;stroke:#29323C;stroke-width:0.7;stroke-linecap:round;stroke-linejoin:round;stroke-miterlimit:10;}
	.st34{fill:none;stroke:#29323C;stroke-width:0.7;stroke-linecap:round;stroke-linejoin:round;stroke-miterlimit:10;}
	.st35{fill:#29323C;stroke:#29323C;stroke-width:0.25;stroke-linecap:round;stroke-linejoin:round;stroke-miterlimit:10;}
	.st36{fill:#29323C;}
	.st37{fill:#6F8D79;stroke:#043A45;stroke-width:0.75;stroke-linecap:round;stroke-linejoin:round;stroke-miterlimit:10;}
	.st38{fill:none;stroke:#02272F;stroke-width:0.75;stroke-linecap:round;stroke-linejoin:round;stroke-miterlimit:10;}
	.st39{fill:#F12C83;}
	.st40{fill:#FFFFFF;}
	.st41{opacity:0.29;fill:#F8596F;}
	.st42{fill:#61826F;}
	.st43{fill:none;stroke:#507562;stroke-width:0.7;stroke-linecap:round;stroke-linejoin:round;stroke-miterlimit:10;}
	.st44{fill:#F8596F;}
	.st45{fill:none;stroke:#F58F98;stroke-linecap:round;stroke-linejoin:round;stroke-miterlimit:10;}
	.st46{fill:#E63452;}
	.st47{fill:none;stroke:#C11529;stroke-linecap:round;stroke-linejoin:round;stroke-miterlimit:10;}
	.st48{fill:#C11529;}
	.st49{fill:none;}
	.st50{fill:#9A0F16;}
	.st51{fill:#FCB501;}
	.st52{fill:none;stroke:#C11529;stroke-width:0.3;stroke-linecap:round;stroke-linejoin:round;stroke-miterlimit:10;}
	.st53{fill:#507562;}
	.st54{fill:none;stroke:#FA7E8F;stroke-width:0.3175;stroke-linecap:round;stroke-linejoin:round;stroke-miterlimit:10;}
	.st55{fill:#6F8D79;}
	.st56{opacity:0.42;fill:#FCB501;}
</style>
<g id="Layer_1">
	<g>
		<path class="st0" d="M185.67,119.73c0,0-7.52-5.31-0.88-15.48c6.64-10.18-12.01-78.9-45.57-84.5
			c-21.23-3.54-29.64,2.65-29.64,2.65s-8.85-9.73-30.08-3.1c-21.23,6.64-41.14,28.31-40.7,48.22c0.44,19.91-5.09,20.13-17.03,31.63
			c-11.94,11.5-17.03,45.79,3.32,61.71l8.85,6.64c0,0-11.06,9.29-3.54,19.47c7.52,10.18,22.56,18.14,23.89,29.64
			c1.33,11.5,2.49,44.63,10.45,44.63c7.96,0,8.41,5.75,7.96,11.06c-0.44,5.31,1.77,7.96,4.87,11.94c3.1,3.98,6.19,5.75,0,11.5
			c-6.19,5.75-12.39,27.43,2.21,30.97c0,0-9.29-16.37,3.1-22.12c12.39-5.75,26.54-6.64,30.97-30.53s2.38-53.03,23.17-57.46
			c20.79-4.42,37.16-2.65,49.11-19.47C198.06,180.33,201.16,136.54,185.67,119.73z"/>
		<path class="st1" d="M185.64,119.75c0,0-7.52-5.31-0.88-15.48c6.63-10.17-12-78.88-45.55-84.47c-21.23-3.54-29.63,2.65-29.63,2.65
			s-8.84-9.73-30.07-3.1c-21.23,6.63-41.13,28.3-40.69,48.2c0.44,19.9-5.09,20.12-17.03,31.62c-11.94,11.5-17.03,45.77,3.32,61.69
			l8.84,6.63c0,0-11.06,9.29-3.54,19.46c7.52,10.17,22.55,18.13,23.88,29.63c1.33,11.5,2.49,44.61,10.45,44.61
			c7.96,0,8.4,5.75,7.96,11.06c-0.44,5.31,1.77,7.96,4.86,11.94c3.1,3.98,6.19,5.75,0,11.5c-6.19,5.75-12.38,27.42,2.21,30.96
			c0,0-9.29-16.36,3.1-22.11c12.38-5.75,26.53-6.63,30.96-30.51c4.42-23.88,2.38-53.01,23.16-57.43
			c20.78-4.42,37.15-2.65,49.09-19.46C198.02,180.33,201.12,136.55,185.64,119.75z"/>
		<path class="st2" d="M185.61,119.76c0,0-7.52-5.3-0.88-15.47c6.63-10.17-12-78.85-45.53-84.43c-21.22-3.54-29.62,2.65-29.62,2.65
			s-8.84-9.73-30.06-3.09C58.3,26.05,38.4,47.71,38.84,67.6c0.44,19.89-5.08,20.11-17.02,31.61c-11.94,11.49-17.02,45.75,3.32,61.67
			l8.84,6.63c0,0-11.05,9.28-3.54,19.45c7.52,10.17,22.55,18.12,23.87,29.62c1.33,11.49,2.49,44.59,10.44,44.59
			c7.96,0,8.4,5.75,7.96,11.05c-0.44,5.3,1.77,7.96,4.86,11.94c3.09,3.98,6.19,5.75,0,11.49c-6.19,5.75-12.38,27.41,2.21,30.94
			c0,0-9.28-16.36,3.09-22.1c12.38-5.75,26.52-6.63,30.94-30.5c4.42-23.87,2.38-52.99,23.15-57.41
			c20.78-4.42,37.13-2.65,49.07-19.45C197.99,180.33,201.08,136.56,185.61,119.76z"/>
		<path class="st3" d="M185.58,119.78c0,0-7.51-5.3-0.88-15.47c6.63-10.16-11.99-78.82-45.52-84.4
			c-21.21-3.54-29.61,2.65-29.61,2.65s-8.84-9.72-30.05-3.09c-21.21,6.63-41.1,28.28-40.66,48.17c0.44,19.89-5.08,20.11-17.01,31.6
			c-11.93,11.49-17.01,45.74,3.31,61.65l8.84,6.63c0,0-11.05,9.28-3.54,19.44c7.51,10.16,22.54,18.12,23.86,29.61
			c1.33,11.49,2.48,44.58,10.44,44.58c7.95,0,8.4,5.74,7.95,11.05c-0.44,5.3,1.77,7.95,4.86,11.93c3.09,3.98,6.19,5.74,0,11.49
			c-6.19,5.74-12.37,27.4,2.21,30.93c0,0-9.28-16.35,3.09-22.1c12.37-5.74,26.51-6.63,30.93-30.49
			c4.42-23.86,2.38-52.97,23.15-57.39c20.77-4.42,37.12-2.65,49.05-19.44C197.95,180.32,201.05,136.58,185.58,119.78z"/>
		<path class="st4" d="M185.55,119.8c0,0-7.51-5.3-0.88-15.46c6.63-10.16-11.99-78.79-45.5-84.37c-21.2-3.53-29.6,2.65-29.6,2.65
			s-8.83-9.72-30.04-3.09c-21.2,6.63-41.08,28.27-40.64,48.15c0.44,19.88-5.08,20.1-17.01,31.58
			c-11.93,11.49-17.01,45.72,3.31,61.62l8.83,6.63c0,0-11.04,9.28-3.53,19.44c7.51,10.16,22.53,18.11,23.85,29.6
			c1.33,11.49,2.48,44.56,10.43,44.56c7.95,0,8.39,5.74,7.95,11.04c-0.44,5.3,1.77,7.95,4.86,11.93c3.09,3.98,6.18,5.74,0,11.49
			c-6.18,5.74-12.37,27.39,2.21,30.92c0,0-9.28-16.34,3.09-22.09c12.37-5.74,26.5-6.63,30.92-30.48
			c4.42-23.85,2.38-52.95,23.14-57.37c20.76-4.42,37.11-2.65,49.03-19.44C197.92,180.32,201.01,136.59,185.55,119.8z"/>
		<path class="st5" d="M185.52,119.82c0,0-7.51-5.3-0.88-15.46c6.62-10.16-11.99-78.76-45.48-84.34
			c-21.2-3.53-29.59,2.65-29.59,2.65s-8.83-9.71-30.03-3.09c-21.2,6.62-41.07,28.26-40.63,48.13c0.44,19.87-5.08,20.09-17,31.57
			c-11.92,11.48-17,45.7,3.31,61.6l8.83,6.62c0,0-11.04,9.27-3.53,19.43c7.51,10.16,22.52,18.1,23.85,29.59
			c1.32,11.48,2.48,44.54,10.43,44.54c7.95,0,8.39,5.74,7.95,11.04c-0.44,5.3,1.77,7.95,4.86,11.92c3.09,3.97,6.18,5.74,0,11.48
			c-6.18,5.74-12.36,27.38,2.21,30.91c0,0-9.27-16.34,3.09-22.08c12.36-5.74,26.49-6.62,30.91-30.47
			c4.42-23.85,2.37-52.93,23.13-57.35c20.75-4.42,37.09-2.65,49.01-19.43C197.88,180.32,200.97,136.6,185.52,119.82z"/>
		<path class="st6" d="M185.49,119.84c0,0-7.5-5.3-0.88-15.45c6.62-10.15-11.98-78.73-45.47-84.31
			c-21.19-3.53-29.57,2.65-29.57,2.65s-8.83-9.71-30.02-3.09C58.36,26.26,38.5,47.89,38.94,67.75c0.44,19.86-5.08,20.08-16.99,31.56
			C10.03,110.79,4.95,145,25.26,160.89l8.83,6.62c0,0-11.04,9.27-3.53,19.42c7.5,10.15,22.51,18.1,23.84,29.57
			c1.32,11.48,2.48,44.53,10.43,44.53c7.95,0,8.39,5.74,7.95,11.04c-0.44,5.3,1.77,7.95,4.86,11.92c3.09,3.97,6.18,5.74,0,11.48
			c-6.18,5.74-12.36,27.37,2.21,30.9c0,0-9.27-16.33,3.09-22.07c12.36-5.74,26.48-6.62,30.9-30.46
			c4.41-23.84,2.37-52.91,23.12-57.33c20.75-4.41,37.08-2.65,49-19.42C197.85,180.31,200.94,136.61,185.49,119.84z"/>
		<path class="st7" d="M185.46,119.86c0,0-7.5-5.3-0.88-15.44c6.62-10.15-11.98-78.7-45.45-84.28c-21.18-3.53-29.56,2.65-29.56,2.65
			s-8.83-9.71-30-3.09c-21.18,6.62-41.04,28.24-40.59,48.1c0.44,19.86-5.07,20.08-16.99,31.55c-11.91,11.47-16.99,45.67,3.31,61.55
			l8.82,6.62c0,0-11.03,9.27-3.53,19.41c7.5,10.15,22.5,18.09,23.83,29.56C55.73,227.97,56.89,261,64.83,261
			c7.94,0,8.38,5.74,7.94,11.03c-0.44,5.3,1.76,7.94,4.85,11.91c3.09,3.97,6.18,5.74,0,11.47c-6.18,5.74-12.35,27.36,2.21,30.89
			c0,0-9.27-16.33,3.09-22.06c12.35-5.74,26.47-6.62,30.89-30.45c4.41-23.83,2.37-52.89,23.11-57.31
			c20.74-4.41,37.06-2.65,48.98-19.41C197.81,180.31,200.9,136.63,185.46,119.86z"/>
		<path class="st8" d="M185.43,119.88c0,0-7.5-5.29-0.88-15.44c6.62-10.14-11.97-78.67-45.43-84.25
			c-21.17-3.53-29.55,2.65-29.55,2.65s-8.82-9.7-29.99-3.09C58.4,26.37,38.55,47.98,38.99,67.83c0.44,19.85-5.07,20.07-16.98,31.54
			c-11.91,11.47-16.98,45.65,3.31,61.53l8.82,6.62c0,0-11.03,9.26-3.53,19.41c7.5,10.14,22.5,18.08,23.82,29.55
			c1.32,11.47,2.48,44.49,10.42,44.49c7.94,0,8.38,5.73,7.94,11.03c-0.44,5.29,1.76,7.94,4.85,11.91c3.09,3.97,6.18,5.73,0,11.47
			c-6.18,5.73-12.35,27.35,2.21,30.88c0,0-9.26-16.32,3.09-22.05c12.35-5.73,26.47-6.62,30.88-30.43s2.37-52.88,23.1-57.29
			c20.73-4.41,37.05-2.65,48.96-19.41C197.78,180.31,200.87,136.64,185.43,119.88z"/>
		<path class="st9" d="M185.4,119.9c0,0-7.5-5.29-0.88-15.43c6.61-10.14-11.97-78.64-45.41-84.22c-21.16-3.53-29.54,2.65-29.54,2.65
			s-8.82-9.7-29.98-3.09c-21.16,6.61-41.01,28.22-40.56,48.06c0.44,19.84-5.07,20.06-16.98,31.53
			c-11.9,11.46-16.98,45.64,3.31,61.51l8.82,6.61c0,0-11.02,9.26-3.53,19.4c7.5,10.14,22.49,18.08,23.81,29.54
			c1.32,11.46,2.48,44.48,10.42,44.48c7.94,0,8.38,5.73,7.94,11.02c-0.44,5.29,1.76,7.94,4.85,11.9c3.09,3.97,6.17,5.73,0,11.46
			c-6.17,5.73-12.35,27.34,2.2,30.86c0,0-9.26-16.31,3.09-22.05c12.35-5.73,26.46-6.61,30.86-30.42s2.37-52.86,23.09-57.26
			c20.72-4.41,37.04-2.65,48.94-19.4C197.74,180.3,200.83,136.65,185.4,119.9z"/>
		<path class="st10" d="M185.37,119.92c0,0-7.49-5.29-0.88-15.43c6.61-10.14-11.96-78.61-45.4-84.18
			c-21.16-3.53-29.53,2.64-29.53,2.64s-8.82-9.7-29.97-3.09C58.43,26.48,38.6,48.07,39.04,67.91c0.44,19.83-5.07,20.05-16.97,31.51
			c-11.9,11.46-16.97,45.62,3.31,61.49l8.82,6.61c0,0-11.02,9.26-3.53,19.39c7.49,10.14,22.48,18.07,23.8,29.53
			c1.32,11.46,2.48,44.46,10.41,44.46c7.93,0,8.37,5.73,7.93,11.02c-0.44,5.29,1.76,7.93,4.85,11.9c3.09,3.97,6.17,5.73,0,11.46
			c-6.17,5.73-12.34,27.33,2.2,30.85c0,0-9.26-16.31,3.09-22.04c12.34-5.73,26.45-6.61,30.85-30.41
			c4.41-23.8,2.37-52.84,23.09-57.24c20.72-4.41,37.02-2.64,48.92-19.39C197.71,180.3,200.79,136.67,185.37,119.92z"/>
		<path class="st11" d="M185.34,119.94c0,0-7.49-5.29-0.88-15.42c6.61-10.13-11.96-78.58-45.38-84.15
			c-21.15-3.52-29.52,2.64-29.52,2.64s-8.81-9.69-29.96-3.08c-21.15,6.61-40.98,28.2-40.53,48.02c0.44,19.83-5.07,20.05-16.96,31.5
			c-11.9,11.46-16.96,45.6,3.3,61.46l8.81,6.61c0,0-11.01,9.25-3.52,19.39c7.49,10.13,22.47,18.06,23.79,29.52
			c1.32,11.46,2.48,44.44,10.41,44.44c7.93,0,8.37,5.73,7.93,11.01c-0.44,5.29,1.76,7.93,4.85,11.9c3.08,3.97,6.17,5.73,0,11.46
			c-6.17,5.73-12.34,27.32,2.2,30.84c0,0-9.25-16.3,3.08-22.03c12.34-5.73,26.44-6.61,30.84-30.4c4.41-23.79,2.37-52.82,23.08-57.22
			c20.71-4.41,37.01-2.64,48.91-19.39C197.67,180.3,200.76,136.68,185.34,119.94z"/>
		<path class="st12" d="M185.31,119.96c0,0-7.49-5.29-0.88-15.42c6.61-10.13-11.95-78.55-45.36-84.12
			c-21.14-3.52-29.51,2.64-29.51,2.64s-8.81-9.69-29.95-3.08c-21.14,6.61-40.96,28.19-40.52,48.01
			c0.44,19.82-5.06,20.04-16.96,31.49c-11.89,11.45-16.96,45.58,3.3,61.44l8.81,6.61c0,0-11.01,9.25-3.52,19.38
			c7.49,10.13,22.46,18.06,23.78,29.51c1.32,11.45,2.48,44.43,10.4,44.43c7.93,0,8.37,5.73,7.93,11.01
			c-0.44,5.29,1.76,7.93,4.84,11.89c3.08,3.96,6.17,5.73,0,11.45c-6.17,5.73-12.33,27.31,2.2,30.83c0,0-9.25-16.3,3.08-22.02
			c12.33-5.73,26.43-6.61,30.83-30.39s2.37-52.8,23.07-57.2c20.7-4.4,37-2.64,48.89-19.38C197.64,180.3,200.72,136.69,185.31,119.96
			z"/>
		<path class="st13" d="M185.28,119.98c0,0-7.48-5.28-0.88-15.41c6.6-10.13-11.95-78.52-45.35-84.09
			c-21.13-3.52-29.5,2.64-29.5,2.64s-8.81-9.69-29.94-3.08c-21.13,6.6-40.94,28.18-40.5,47.99c0.44,19.81-5.06,20.03-16.95,31.48
			c-11.89,11.45-16.95,45.57,3.3,61.42l8.81,6.6c0,0-11.01,9.25-3.52,19.37c7.48,10.13,22.45,18.05,23.77,29.5
			c1.32,11.45,2.48,44.41,10.4,44.41c7.92,0,8.37,5.72,7.92,11.01c-0.44,5.28,1.76,7.92,4.84,11.89c3.08,3.96,6.16,5.72,0,11.45
			c-6.16,5.72-12.33,27.3,2.2,30.82c0,0-9.25-16.29,3.08-22.01c12.33-5.72,26.42-6.6,30.82-30.38s2.37-52.78,23.06-57.18
			c20.69-4.4,36.98-2.64,48.87-19.37C197.6,180.29,200.69,136.71,185.28,119.98z"/>
		<path class="st14" d="M185.25,119.99c0,0-7.48-5.28-0.88-15.4c6.6-10.12-11.95-78.5-45.33-84.06
			c-21.12-3.52-29.49,2.64-29.49,2.64s-8.8-9.68-29.93-3.08c-21.12,6.6-40.93,28.17-40.49,47.97c0.44,19.8-5.06,20.02-16.94,31.47
			c-11.88,11.44-16.94,45.55,3.3,61.39l8.8,6.6c0,0-11,9.24-3.52,19.36c7.48,10.12,22.45,18.04,23.77,29.49
			c1.32,11.44,2.47,44.4,10.4,44.4c7.92,0,8.36,5.72,7.92,11c-0.44,5.28,1.76,7.92,4.84,11.88c3.08,3.96,6.16,5.72,0,11.44
			c-6.16,5.72-12.32,27.29,2.2,30.81c0,0-9.24-16.28,3.08-22.01c12.32-5.72,26.41-6.6,30.81-30.37s2.37-52.76,23.05-57.16
			c20.68-4.4,36.97-2.64,48.85-19.36C197.57,180.29,200.65,136.72,185.25,119.99z"/>
		<path class="st15" d="M185.22,120.01c0,0-7.48-5.28-0.88-15.4c6.6-10.12-11.94-78.47-45.31-84.03
			c-21.12-3.52-29.48,2.64-29.48,2.64s-8.8-9.68-29.92-3.08C58.51,26.75,38.72,48.3,39.16,68.1c0.44,19.8-5.06,20.02-16.94,31.46
			c-11.88,11.44-16.94,45.53,3.3,61.37l8.8,6.6c0,0-11,9.24-3.52,19.36c7.48,10.12,22.44,18.04,23.76,29.48
			c1.32,11.44,2.47,44.38,10.39,44.38c7.92,0,8.36,5.72,7.92,11c-0.44,5.28,1.76,7.92,4.84,11.88c3.08,3.96,6.16,5.72,0,11.44
			c-6.16,5.72-12.32,27.28,2.2,30.8c0,0-9.24-16.28,3.08-22c12.32-5.72,26.4-6.6,30.8-30.36s2.37-52.74,23.04-57.14
			c20.68-4.4,36.95-2.64,48.83-19.36C197.53,180.29,200.61,136.73,185.22,120.01z"/>
		<path class="st16" d="M185.19,120.03c0,0-7.48-5.28-0.88-15.39c6.6-10.11-11.94-78.44-45.3-84c-21.11-3.52-29.46,2.64-29.46,2.64
			s-8.8-9.68-29.9-3.08c-21.11,6.6-40.9,28.15-40.46,47.94c0.44,19.79-5.06,20.01-16.93,31.44c-11.87,11.43-16.93,45.52,3.3,61.35
			l8.8,6.6c0,0-10.99,9.24-3.52,19.35c7.48,10.11,22.43,18.03,23.75,29.46c1.32,11.43,2.47,44.36,10.39,44.36
			c7.92,0,8.36,5.72,7.92,10.99c-0.44,5.28,1.76,7.92,4.84,11.87c3.08,3.96,6.16,5.72,0,11.43c-6.16,5.72-12.31,27.27,2.2,30.78
			c0,0-9.24-16.27,3.08-21.99c12.31-5.72,26.39-6.6,30.78-30.34s2.36-52.72,23.03-57.12c20.67-4.4,36.94-2.64,48.81-19.35
			C197.5,180.28,200.58,136.74,185.19,120.03z"/>
		<path class="st17" d="M185.16,120.05c0,0-7.47-5.28-0.88-15.39c6.59-10.11-11.93-78.41-45.28-83.97
			c-21.1-3.52-29.45,2.64-29.45,2.64s-8.79-9.67-29.89-3.08C58.55,26.85,38.76,48.4,39.2,68.18c0.44,19.78-5.06,20-16.93,31.43
			c-11.87,11.43-16.92,45.5,3.3,61.33l8.79,6.59c0,0-10.99,9.23-3.52,19.34c7.47,10.11,22.42,18.02,23.74,29.45
			c1.32,11.43,2.47,44.35,10.38,44.35c7.91,0,8.35,5.71,7.91,10.99c-0.44,5.28,1.76,7.91,4.84,11.87c3.08,3.96,6.15,5.71,0,11.43
			c-6.15,5.71-12.31,27.26,2.2,30.77c0,0-9.23-16.27,3.08-21.98c12.31-5.71,26.38-6.59,30.77-30.33s2.36-52.7,23.03-57.09
			c20.66-4.4,36.93-2.64,48.8-19.34C197.46,180.28,200.54,136.76,185.16,120.05z"/>
		<path class="st18" d="M185.12,120.07c0,0-7.47-5.27-0.88-15.38c6.59-10.11-11.93-78.38-45.26-83.93
			c-21.09-3.52-29.44,2.64-29.44,2.64s-8.79-9.67-29.88-3.08c-21.09,6.59-40.87,28.12-40.43,47.9c0.44,19.78-5.05,19.99-16.92,31.42
			c-11.87,11.43-16.92,45.48,3.3,61.3l8.79,6.59c0,0-10.99,9.23-3.52,19.34c7.47,10.11,22.41,18.02,23.73,29.44
			c1.32,11.43,2.47,44.33,10.38,44.33c7.91,0,8.35,5.71,7.91,10.99c-0.44,5.27,1.76,7.91,4.83,11.87c3.08,3.96,6.15,5.71,0,11.43
			c-6.15,5.71-12.3,27.25,2.2,30.76c0,0-9.23-16.26,3.08-21.97c12.3-5.71,26.37-6.59,30.76-30.32c4.39-23.73,2.36-52.68,23.02-57.07
			c20.65-4.39,36.91-2.64,48.78-19.34C197.43,180.28,200.51,136.77,185.12,120.07z"/>
		<path class="st19" d="M185.09,120.09c0,0-7.47-5.27-0.88-15.37c6.59-10.1-11.92-78.35-45.25-83.9
			c-21.09-3.51-29.43,2.64-29.43,2.64s-8.79-9.66-29.87-3.08c-21.09,6.59-40.85,28.11-40.41,47.88
			c0.44,19.77-5.05,19.99-16.91,31.41c-11.86,11.42-16.91,45.47,3.29,61.28l8.79,6.59c0,0-10.98,9.22-3.51,19.33
			c7.47,10.1,22.4,18.01,23.72,29.43c1.32,11.42,2.47,44.31,10.38,44.31c7.91,0,8.35,5.71,7.91,10.98
			c-0.44,5.27,1.76,7.91,4.83,11.86c3.08,3.95,6.15,5.71,0,11.42c-6.15,5.71-12.3,27.24,2.2,30.75c0,0-9.22-16.25,3.07-21.96
			c12.3-5.71,26.36-6.59,30.75-30.31c4.39-23.72,2.36-52.66,23.01-57.05c20.65-4.39,36.9-2.64,48.76-19.33
			C197.39,180.27,200.47,136.78,185.09,120.09z"/>
		<path class="st20" d="M185.06,120.11c0,0-7.46-5.27-0.88-15.37c6.59-10.1-11.92-78.32-45.23-83.87
			c-21.08-3.51-29.42,2.63-29.42,2.63s-8.78-9.66-29.86-3.07c-21.08,6.59-40.84,28.1-40.4,47.86c0.44,19.76-5.05,19.98-16.91,31.4
			c-11.86,11.42-16.91,45.45,3.29,61.26l8.78,6.59c0,0-10.98,9.22-3.51,19.32c7.46,10.1,22.4,18,23.71,29.42
			c1.32,11.42,2.47,44.3,10.37,44.3c7.9,0,8.34,5.71,7.9,10.98c-0.44,5.27,1.76,7.9,4.83,11.86c3.07,3.95,6.15,5.71,0,11.42
			c-6.15,5.71-12.3,27.23,2.2,30.74c0,0-9.22-16.25,3.07-21.96c12.3-5.71,26.35-6.59,30.74-30.3c4.39-23.71,2.36-52.64,23-57.03
			c20.64-4.39,36.89-2.63,48.74-19.32C197.36,180.27,200.43,136.8,185.06,120.11z"/>
		<path class="st21" d="M185.03,120.13c0,0-7.46-5.27-0.88-15.36c6.58-10.1-11.91-78.29-45.21-83.84
			c-21.07-3.51-29.41,2.63-29.41,2.63s-8.78-9.66-29.85-3.07C58.61,27.07,38.86,48.58,39.3,68.33c0.44,19.75-5.05,19.97-16.9,31.39
			c-11.85,11.41-16.9,45.43,3.29,61.23l8.78,6.58c0,0-10.97,9.22-3.51,19.31c7.46,10.1,22.39,18,23.7,29.41
			c1.32,11.41,2.47,44.28,10.37,44.28c7.9,0,8.34,5.71,7.9,10.97c-0.44,5.27,1.76,7.9,4.83,11.85c3.07,3.95,6.15,5.71,0,11.41
			c-6.15,5.71-12.29,27.22,2.19,30.73c0,0-9.22-16.24,3.07-21.95c12.29-5.71,26.34-6.58,30.73-30.29
			c4.39-23.7,2.36-52.62,22.99-57.01c20.63-4.39,36.87-2.63,48.72-19.31C197.32,180.27,200.4,136.81,185.03,120.13z"/>
		<path class="st22" d="M185,120.15c0,0-7.46-5.27-0.88-15.36c6.58-10.09-11.91-78.26-45.2-83.81c-21.06-3.51-29.4,2.63-29.4,2.63
			s-8.78-9.65-29.84-3.07c-21.06,6.58-40.81,28.08-40.37,47.83c0.44,19.75-5.05,19.96-16.89,31.37
			c-11.85,11.41-16.89,45.41,3.29,61.21l8.78,6.58c0,0-10.97,9.21-3.51,19.31c7.46,10.09,22.38,17.99,23.69,29.4
			c1.32,11.41,2.47,44.26,10.37,44.26c7.9,0,8.34,5.7,7.9,10.97c-0.44,5.27,1.76,7.9,4.83,11.85c3.07,3.95,6.14,5.7,0,11.41
			c-6.14,5.7-12.29,27.21,2.19,30.72c0,0-9.21-16.24,3.07-21.94c12.29-5.7,26.33-6.58,30.72-30.28c4.39-23.69,2.36-52.6,22.98-56.99
			c20.62-4.39,36.86-2.63,48.71-19.31C197.29,180.26,200.36,136.82,185,120.15z"/>
		<path class="st23" d="M184.97,120.17c0,0-7.46-5.26-0.88-15.35c6.58-10.09-11.91-78.23-45.18-83.78
			c-21.05-3.51-29.39,2.63-29.39,2.63s-8.77-9.65-29.83-3.07c-21.05,6.58-40.79,28.07-40.35,47.81
			c0.44,19.74-5.04,19.96-16.89,31.36c-11.84,11.4-16.89,45.4,3.29,61.19l8.77,6.58c0,0-10.97,9.21-3.51,19.3
			c7.46,10.09,22.37,17.98,23.69,29.39c1.32,11.4,2.47,44.25,10.36,44.25c7.9,0,8.33,5.7,7.9,10.97c-0.44,5.26,1.75,7.9,4.82,11.84
			c3.07,3.95,6.14,5.7,0,11.4c-6.14,5.7-12.28,27.19,2.19,30.7c0,0-9.21-16.23,3.07-21.93c12.28-5.7,26.32-6.58,30.7-30.27
			c4.39-23.69,2.36-52.58,22.97-56.97c20.62-4.39,36.84-2.63,48.69-19.3C197.25,180.26,200.32,136.84,184.97,120.17z"/>
		<path class="st24" d="M184.94,120.19c0,0-7.45-5.26-0.88-15.35c6.58-10.08-11.9-78.2-45.16-83.75
			c-21.05-3.51-29.38,2.63-29.38,2.63s-8.77-9.65-29.82-3.07c-21.05,6.58-40.78,28.06-40.34,47.79
			c0.44,19.73-5.04,19.95-16.88,31.35c-11.84,11.4-16.88,45.38,3.29,61.17l8.77,6.58c0,0-10.96,9.21-3.51,19.29
			c7.45,10.08,22.36,17.98,23.68,29.38c1.32,11.4,2.47,44.23,10.36,44.23c7.89,0,8.33,5.7,7.89,10.96
			c-0.44,5.26,1.75,7.89,4.82,11.84c3.07,3.95,6.14,5.7,0,11.4c-6.14,5.7-12.28,27.18,2.19,30.69c0,0-9.21-16.22,3.07-21.92
			c12.28-5.7,26.31-6.58,30.69-30.25c4.38-23.68,2.36-52.56,22.97-56.95c20.61-4.38,36.83-2.63,48.67-19.29
			C197.22,180.26,200.29,136.85,184.94,120.19z"/>
		<path class="st25" d="M184.91,120.21c0,0-7.45-5.26-0.88-15.34c6.57-10.08-11.9-78.17-45.14-83.72
			c-21.04-3.51-29.37,2.63-29.37,2.63s-8.77-9.64-29.8-3.07C58.68,27.29,38.96,48.76,39.4,68.49c0.44,19.72-5.04,19.94-16.87,31.34
			c-11.83,11.4-16.87,45.36,3.29,61.14l8.77,6.57c0,0-10.96,9.2-3.51,19.29c7.45,10.08,22.35,17.97,23.67,29.37
			c1.31,11.4,2.46,44.21,10.35,44.21c7.89,0,8.33,5.7,7.89,10.96c-0.44,5.26,1.75,7.89,4.82,11.83c3.07,3.94,6.14,5.7,0,11.4
			c-6.14,5.7-12.27,27.17,2.19,30.68c0,0-9.2-16.22,3.07-21.92c12.27-5.7,26.3-6.57,30.68-30.24c4.38-23.67,2.36-52.54,22.96-56.92
			c20.6-4.38,36.82-2.63,48.65-19.29C197.18,180.25,200.25,136.86,184.91,120.21z"/>
		<path class="st26" d="M184.88,120.22c0,0-7.45-5.26-0.88-15.33c6.57-10.08-11.89-78.14-45.13-83.68
			c-21.03-3.51-29.36,2.63-29.36,2.63s-8.76-9.64-29.79-3.07C58.7,27.34,38.98,48.81,39.42,68.53c0.44,19.72-5.04,19.94-16.87,31.33
			c-11.83,11.39-16.87,45.35,3.29,61.12l8.76,6.57c0,0-10.95,9.2-3.51,19.28c7.45,10.08,22.34,17.96,23.66,29.36
			c1.31,11.39,2.46,44.2,10.35,44.2c7.89,0,8.32,5.7,7.89,10.95c-0.44,5.26,1.75,7.89,4.82,11.83c3.07,3.94,6.13,5.7,0,11.39
			c-6.13,5.7-12.27,27.16,2.19,30.67c0,0-9.2-16.21,3.07-21.91c12.27-5.7,26.29-6.57,30.67-30.23c4.38-23.66,2.36-52.52,22.95-56.9
			c20.59-4.38,36.8-2.63,48.63-19.28C197.15,180.25,200.22,136.87,184.88,120.22z"/>
		<path class="st27" d="M184.85,120.24c0,0-7.45-5.26-0.88-15.33c6.57-10.07-11.89-78.12-45.11-83.65
			c-21.02-3.5-29.34,2.63-29.34,2.63s-8.76-9.64-29.78-3.07c-21.02,6.57-40.73,28.03-40.29,47.74c0.44,19.71-5.04,19.93-16.86,31.31
			c-11.83,11.39-16.86,45.33,3.28,61.1l8.76,6.57c0,0-10.95,9.2-3.5,19.27c7.45,10.07,22.34,17.96,23.65,29.34
			c1.31,11.39,2.46,44.18,10.35,44.18c7.88,0,8.32,5.69,7.88,10.95c-0.44,5.26,1.75,7.88,4.82,11.83c3.07,3.94,6.13,5.69,0,11.39
			c-6.13,5.69-12.26,27.15,2.19,30.66c0,0-9.2-16.2,3.07-21.9c12.26-5.69,26.28-6.57,30.66-30.22c4.38-23.65,2.36-52.5,22.94-56.88
			c20.58-4.38,36.79-2.63,48.61-19.27C197.11,180.25,200.18,136.89,184.85,120.24z"/>
	</g>
	<path class="st28" d="M185.67,119.73c0,0-7.52-5.31-0.88-15.48c6.64-10.18-12.01-78.9-45.57-84.5
		c-21.23-3.54-29.64,2.65-29.64,2.65s-8.85-9.73-30.08-3.1c-21.23,6.64-41.14,28.31-40.7,48.22c0.44,19.91-5.09,20.13-17.03,31.63
		c-11.94,11.5-17.03,45.79,3.32,61.71l8.85,6.64c0,0-11.06,9.29-3.54,19.47c7.52,10.18,22.56,18.14,23.89,29.64
		c1.33,11.5,2.49,44.63,10.45,44.63c7.96,0,8.41,5.75,7.96,11.06c-0.44,5.31,1.77,7.96,4.87,11.94c3.1,3.98,6.19,5.75,0,11.5
		c-6.19,5.75-12.39,27.43,2.21,30.97c0,0-9.29-16.37,3.1-22.12c12.39-5.75,26.54-6.64,30.97-30.53s2.38-53.03,23.17-57.46
		c20.79-4.42,37.16-2.65,49.11-19.47C198.06,180.33,201.16,136.54,185.67,119.73z M133.14,136.54c0,0-5.97,17.92-0.33,24.22
		c5.64,6.3,6.64,9.95,6.64,9.95s-1.33-4.98-15.93,7.96c-14.6,12.94-32.18,39.15-32.18,39.15s9.95-14.93,4.98-28.2
		c-4.98-13.27-7.3-22.89-13.27-23.23c0,0-11.28,1.99-15.59-1.99s-3.98-14.6-7.3-22.23c-3.32-7.63-7.3-28.53-3.32-36.17
		c3.98-7.63,6.3-10.95,7.63-13.27c1.33-2.32,1.66-4.98,1.66-4.98s-2.32-9.29,1.33-14.93s17.92-27.21,30.19-25.22l4.31,3.98
		c0,0,0.66-1.99,6.64-1.99s21.9,1.33,24.55,16.26c2.65,14.93,1.66,38.82,4.65,39.15c2.99,0.33,9.95,1,10.62,6.64
		C149.06,117.29,143.75,134.88,133.14,136.54z"/>
	<path class="st29" d="M132.88,136.79c0,0-5.97,17.92-0.33,24.22c5.64,6.3,6.64,9.95,6.64,9.95s-1.33-4.98-15.93,7.96
		c-14.6,12.94-32.18,39.15-32.18,39.15s9.95-14.93,4.98-28.2c-4.98-13.27-7.3-22.89-13.27-23.23c0,0-11.28,1.99-15.59-1.99
		c-4.31-3.98-3.98-14.6-7.3-22.23c-3.32-7.63-7.3-28.53-3.32-36.17s6.3-10.95,7.63-13.27c1.33-2.32,1.66-4.98,1.66-4.98
		s-2.32-9.29,1.33-14.93c3.65-5.64,17.92-27.21,30.19-25.22l4.31,3.98c0,0,0.66-1.99,6.64-1.99c5.97,0,21.9,1.33,24.55,16.26
		s1.66,38.82,4.65,39.15c2.99,0.33,9.95,1,10.62,6.64C148.8,117.55,143.49,135.13,132.88,136.79c0,0-4.31,0.33-4.31-1.99
		s1.66-7.3,1.66-7.3"/>
	<polygon class="st30" points="65.17,90.8 68.71,89.03 73.8,91.03 78.59,97.08 77.05,98.18 73.47,100.7 69.82,101.42 66.72,100.32 
		65.62,98.1 64.45,94.73 64.07,92.8 	"/>
	<polygon class="st30" points="101.67,102.53 108.75,98.33 113.39,97.66 117.38,99.43 120.25,102.31 122.68,106.07 124.45,107.62 
		120.25,108.06 117.6,110.27 113.39,110.93 108.53,110.05 104.99,108.28 103.22,106.29 	"/>
	<path class="st31" d="M132.88,136.79c0,0-5.97,17.92-0.33,24.22c5.64,6.3,6.64,9.95,6.64,9.95s-1.33-4.98-15.93,7.96
		c-14.6,12.94-32.18,39.15-32.18,39.15s9.95-14.93,4.98-28.2c-4.98-13.27-7.3-22.89-13.27-23.23c0,0-11.28,1.99-15.59-1.99
		c-4.31-3.98-3.98-14.6-7.3-22.23c-3.32-7.63-7.3-28.53-3.32-36.17s6.3-10.95,7.63-13.27c1.33-2.32,1.66-4.98,1.66-4.98
		s-2.32-9.29,1.33-14.93c3.65-5.64,17.92-27.21,30.19-25.22l4.31,3.98c0,0,0.66-1.99,6.64-1.99c5.97,0,21.9,1.33,24.55,16.26
		s1.66,38.82,4.65,39.15c2.99,0.33,9.95,1,10.62,6.64C148.8,117.55,143.49,135.13,132.88,136.79c0,0-4.31,0.33-4.31-1.99
		s1.66-7.3,1.66-7.3"/>
	<path class="st32" d="M90.41,81.71c0,0-4.65,31.85-14.93,35.5c0,0-2.65,0.66-1.66,2.99c1,2.32,7.96,9.62,15.59,3.65
		c0,0-7.63,4.89-14.27-2.99c0,0-1.49-1.66,0.41-2.57C77.47,117.38,86.09,114.06,90.41,81.71z"/>
	<path class="st33" d="M118.83,101.51c0,0-2.05,5.75-7.52,4.09c-4.62-1.4-3.1-6.64-3.1-6.64s2.76-1.77,5.2-1.22
		C115.84,98.3,118.06,99.41,118.83,101.51z"/>
	<path class="st34" d="M102.68,104.27c0,0,0,4.65,7.8,6.14c8.71,1.67,9.95-2.49,9.95-2.49h4.31c-2.65,0-2.65-1.33-3.48-2.65
		c-7.96-14.76-19.74-2.49-19.74-2.49"/>
	<path class="st35" d="M121.26,105.27c-7.96-14.76-19.74-2.49-19.74-2.49s12.11-14.1,21.29,1.6c0,0,1.55,2.99,3.98,2.99
		c0,0-1.22,0.66-2.65,0.77C122.7,108.26,121.26,105.27,121.26,105.27z"/>
	<path class="st33" d="M67.01,90.17c0,0-0.72,3.71-0.06,5.14c1.19,2.57,7.19,3.76,9.01-1.33c0,0-2.16-4.31-4.7-4.65
		C68.73,89.01,67.01,90.17,67.01,90.17z"/>
	<path class="st35" d="M65.08,91c5.64-4.98,13.59,6,13.59,6s-3.8-7.82-9.16-8.65C66.63,87.91,65.08,91,65.08,91z"/>
	<path class="st34" d="M64.46,92.74c0,0-0.15,5.24,2.82,7.47c2.73,2.05,7.39,0.56,9.07-2.05h1.38"/>
	<path class="st36" d="M130.06,97.64c0,0-6.14-8.13-12.11-8.29c-5.97-0.17-17.25,1.33-17.25,1.33s-1.16-4.15,1.66-4.81
		c2.82-0.66,12.94-1,18.75,1.99C126.9,90.84,130.06,97.64,130.06,97.64z"/>
	<path class="st36" d="M83.6,85.86c0,0-12.11-4.98-17.92-3.98l-0.17-2.16c0,0,1-1.16,1.99-1.16s14.93,1,15.76,2.49
		C84.1,82.54,83.6,85.86,83.6,85.86z"/>
	<path class="st32" d="M65.63,138.01c0,0,3.54-3.43,9.51-3.1l4.53,1.11c0,0,7.08,2.6,8.74,6.91c0,0-1.99,7.8-12.39,6.25
		C64.33,147.43,65.63,138.01,65.63,138.01z"/>
	<path class="st32" d="M82.78,166.65c0,0,23.39-1.49,36.66-10.95c0,0-11.41,16.5-30.16,16.5C89.28,172.21,86.42,166.32,82.78,166.65
		z"/>
	<path class="st34" d="M134.54,123.96c0,0,5.31-0.44,6.64-7.08l-5.31,1.33"/>
	<circle class="st36" cx="70.94" cy="92.99" r="1.79"/>
	<circle class="st36" cx="112.97" cy="101.29" r="1.79"/>
	<path class="st37" d="M108.21,98.97"/>
	<path class="st38" d="M62.09,135.13c0,0,6.16,6.02,13.82,7.3c12.22,2.05,16.37-0.44,16.7-0.77"/>
	<path class="st39" d="M31.24,97.91"/>
	<circle class="st40" cx="69.49" cy="91.88" r="0.91"/>
	<path class="st40" d="M72.77,135.98c1.41-0.17,3.24,0.53,2.77,0.71c-0.28,0.11-2.07,0.21-3.93,0.45c-1.27,0.16-2.83,0.56-2.91,0.37
		c-0.18-0.47,0.78-0.94,1.25-1.12C70.41,136.21,71.36,136.14,72.77,135.98z"/>
	<circle class="st40" cx="111.87" cy="100.26" r="0.91"/>
	
		<ellipse transform="matrix(0.9995 -0.0311 0.0311 0.9995 -3.833 3.501)" class="st41" cx="110.74" cy="125.09" rx="9.4" ry="4.98"/>
	<path class="st41" d="M58.76,103.19c1.92-0.11,3.29-0.07,5.65,1.02c4.72,2.17,7.61,5.95,6.47,8.45c-1.15,2.5-5.9,2.77-10.62,0.6
		c-2.06-0.95-3.41-1.22-4.59-2.54c0,0,0.42-2.36,0.94-3.59C57.13,105.88,58.76,103.19,58.76,103.19z"/>
</g>
<g id="Layer_2">
	<g>
		<path class="st42" d="M79.77,47.57c-3.46,0.08-6.9,0.6-10.23,1.54c-3.12,0.89-6.18,2.18-8.61,4.33c-0.85,0.75-1.63,1.62-2.1,2.65
			c-0.3,0.66-0.46,1.36-0.61,2.07c-0.65,3.12-0.96,6.31-0.91,9.49c3.84-1.59,7.92-2.63,11.57-4.61c3.65-1.99,6.95-5.2,7.67-9.29
			c0.22-1.27,0.2-2.59,0.6-3.81c0.4-1.22,1.41-2.39,2.7-2.41c-0.25,0.09-0.5,0.17-0.75,0.26"/>
		<path class="st42" d="M83.72,45.01c0.24-3.31,2.69-6.18,5.66-7.67c2.97-1.49,6.39-1.81,9.71-1.77s6.65,0.42,9.96,0.21
			c-1.32,0.34-1.89,1.84-2.67,2.96c-0.64,0.92-1.5,1.65-2.41,2.3c-5.84,4.24-13.68,5.59-20.6,3.53"/>
		<path class="st43" d="M79.11,47.78c-3.26,1.66-7.4,3.79-9.91,6.45c-0.76,0.81-1.4,1.74-2.21,2.5c-2.62,2.46-4.83,5.27-6.96,8.15"
			/>
		<path class="st43" d="M72.58,51.05c-0.94-0.41-2.01-0.33-3.01-0.1c-1,0.23-1.96,0.59-2.97,0.74"/>
		<path class="st43" d="M70.47,52.92c-1.1-0.14-2.24,0.08-3.2,0.63c-0.41,0.23-0.78,0.52-1.2,0.74c-0.65,0.34-1.39,0.5-2.12,0.46"/>
		<path class="st43" d="M67.51,55.75c-1.17,0.47-2.16,1.29-3.26,1.91c-1.1,0.62-2.42,1.05-3.61,0.64"/>
		<path class="st43" d="M64.09,59.75c-1.58,1.42-3.65,2.28-5.77,2.39"/>
		<path class="st43" d="M66.13,57.91c-0.31,0.76-0.07,1.62,0.13,2.41c0.2,0.8,0.34,1.71-0.13,2.38"/>
		<path class="st43" d="M69.22,54.72c0.57,1.34,1.15,2.68,1.72,4.02c0.13,0.3,0.2,0.76-0.11,0.87"/>
		<path class="st43" d="M71.67,52.11c0.86,1.39,1.37,2.99,1.49,4.63"/>
		<path class="st43" d="M75.2,49.79c-0.23,0.79-0.27,1.62-0.3,2.44c-0.04,0.88-0.07,1.76-0.11,2.63"/>
		<path class="st43" d="M83.79,44.62c3.1-2.36,6.86-3.72,10.66-4.62s7.68-1.4,11.49-2.25c-1.72,0.5-3.57,0.58-5.35,0.74
			C94.76,39,89.05,40.83,84.02,43.8c-0.24,0.14-0.42,0.57-0.15,0.59"/>
		<path class="st43" d="M87.4,42.58c0.18-0.91,2-2.27,2.85-2.64c0.48-0.21,1.11-0.37,1.23-0.89c0.02-0.11,0.02-0.23,0.07-0.33
			c0.05-0.1,0.19-0.17,0.28-0.1"/>
		<path class="st43" d="M92.39,40.43c0.73-0.65,1.66-1.04,2.45-1.61c0.79-0.57,1.48-1.47,1.35-2.44"/>
		<path class="st43" d="M94.44,40c0.75,0.11,4.5-1.16,5.15-1.56c1.01-0.63,2.03-1.26,3.04-1.89"/>
		<path class="st43" d="M85.41,43.34c1.07,0.21,2.15,0.42,3.22,0.63c0.85,0.17,1.81,0.31,2.53-0.17"/>
		<path class="st43" d="M90.05,41.51c1.99,0.69,4.09,1.09,6.2,1.18"/>
		<path class="st43" d="M93.6,40.15c2.03,1.13,6.12,0.97,8.41,0.57"/>
		<path class="st43" d="M101.34,38.71c0.8,0.35,2.7,0.69,3.54,0.46"/>
	</g>
	<path class="st44" d="M87.27,41.89c2.25-2.88,4.89-5.34,5.72-8.9c0.83-3.56-0.47-8.35-3.44-10.48c-3.4-2.44-8.37-1.35-11.57,1.35
		c-0.51,0.43-1,0.9-1.62,1.14c-0.83,0.32-1.77,0.18-2.66,0.14c-1.64-0.07-3.36,0.28-4.63,1.32c-1.28,1.03-2,2.84-1.45,4.39
		c-2.63-0.04-5.27,0.46-7.71,1.47c-1.11,0.46-2.24,1.07-2.87,2.1c-0.63,1.03-0.58,2.56,0.41,3.26c-1.91,0.89-4.11,0.98-6.05,1.79
		c-1.94,0.81-3.72,2.85-3.08,4.86c0.57,1.79,2.67,2.52,4.51,2.9c9.3,1.92,19.13,1.22,28.06-2.02c2.86-1.03,5.91-2.63,6.83-5.52"/>
	<path class="st45" d="M69.37,39.56c-3.13-1.47-6.51-2.41-9.95-2.78"/>
	<path class="st45" d="M78.86,34.09c-1.18-0.92-2.21-2.02-3.38-2.95c-1.17-0.94-2.52-1.73-4.01-1.88"/>
	<path class="st45" d="M84.47,29.24c0.13-1.44,0.35-3.06,1.5-3.95c0.12-0.09,0.25-0.18,0.33-0.3c0.19-0.28,0.06-0.72-0.25-0.85"/>
	<path class="st45" d="M61.41,40.86c-1.04,0.37-2.17-0.16-3.28-0.21c-0.98-0.04-1.94,0.29-2.89,0.54s-1.99,0.4-2.89,0"/>
	<g>
		<path class="st46" d="M51.02,46.79c4.08,0.99,9.33,3.38,13.52,3.68c4.05,0.28,8.15-0.09,12.08-1.12c4.3-1.12,8.49-3.08,11.59-6.27
			c2.39-2.45,4.06-5.59,4.77-8.94c0.08-0.38,0.2-3.36,0.07-3.72c-0.16-0.43-1.17-0.63-1.55-0.88c-2.42-1.61-4.45-0.77-7.35-0.9
			c-2.9-0.13-6.11,1.93-6.11,4.83c-2.8-0.65-5.78-0.5-8.5,0.44c-0.94,0.32-2,0.98-1.94,1.97c0.08,1.3,2.06,1.9,2.03,3.2
			c-3.01-0.1-6.04,0.3-8.93,1.18c-3.78,1.15-8.45,1.26-8.36,5.21"/>
	</g>
	<path class="st47" d="M54.33,45.13c6.74,2.56,14.19,4.07,21.17,2.27c6.98-1.8,13.28-7.6,13.89-14.78"/>
	<path class="st47" d="M79.54,46.04c-4.2,0.64-8.54,0.32-12.6-0.91c-2.3-0.7-4.61-1.7-7-1.44c0.2,0,0.4,0,0.6-0.01"/>
	<path class="st47" d="M79.19,45.84c-1.47-2.06-3.35-3.83-5.49-5.19c-0.83-0.53-1.71-1-2.45-1.65s-1.34-1.53-1.41-2.51"/>
	<path class="st47" d="M79.7,45.44c-0.39-0.76-0.77-1.52-1.16-2.29c-0.19-0.38-0.39-0.77-0.41-1.19c-0.03-0.49,0.18-0.96,0.36-1.42
		c0.85-2.18,1.13-4.59,0.8-6.91"/>
	<path class="st47" d="M80.4,45.26c-0.5-1.21-0.43-2.64,0.2-3.79c0.45-0.82,1.16-1.48,1.73-2.23c1.56-2.06,2-4.92,1.13-7.35
		c-0.03-0.09-0.09-0.19-0.18-0.18c-0.09,0.01-0.05,0.2,0.02,0.13"/>
	<circle class="st48" cx="69.82" cy="35.95" r="1.55"/>
	<circle class="st48" cx="79.08" cy="32.63" r="1.55"/>
	<circle class="st48" cx="83.64" cy="31.19" r="1.55"/>
	<circle class="st48" cx="89.62" cy="31.86" r="1.55"/>
	<circle class="st48" cx="59.93" cy="43.7" r="1.55"/>
	<circle class="st48" cx="54.33" cy="45.13" r="1.55"/>
	<path class="st49" d="M110.19,17.59c-0.29,0.15-0.59,0.29-0.88,0.44"/>
	<path class="st34" d="M96.83,29.58c10.27-2.77,21.21,4.51,31.54,1.94c2.41-0.6,4.67-1.72,7.08-2.28c3.2-0.74,6.62-0.47,9.65,0.77"
		/>
	<path class="st36" d="M96.35,29.38c0.9-0.08,1.76-0.44,2.45-1.02c0.69-0.58,1.17-1.36,1.65-2.12c0.48-0.76,0.98-1.53,1.68-2.1
		c0.7-0.56,1.65-0.89,2.51-0.64c0.86,0.25,1.52,1.22,1.25,2.08c-0.14,0.44-0.49,0.78-0.86,1.05c-0.94,0.68-2.09,0.99-3.21,1.29
		c-1.72,0.46-3.44,0.92-5.16,1.39"/>
	<path class="st36" d="M96.58,29.86c1.05-0.46,2.28-0.13,3.27,0.43c0.99,0.56,1.85,1.34,2.86,1.88c0.93,0.5,1.98,0.78,3.04,0.82
		c0.49,0.02,1.09-0.09,1.25-0.55c0.2-0.54-0.37-1.05-0.87-1.33c-2.26-1.26-4.85-1.91-7.44-1.88"/>
	<path class="st36" d="M105.15,29.09c2.42,0.59,6.83,0.28,8.84-1.19c0.6-0.44,1.11-0.99,1.72-1.4c0.61-0.42,1.38-0.7,2.09-0.52
		c0.72,0.18,1.3,0.98,1.05,1.67c-0.17,0.46-0.61,0.75-1.05,0.97c-3.28,1.66-7.18,1.37-10.82,0.89"/>
	<path class="st36" d="M108.32,29.62c0.7-0.15,1.43,0.16,1.96,0.63s0.92,1.08,1.33,1.67c1.1,1.62,2.56,3.22,4.5,3.5
		c0.9,0.13,2.04-0.25,2.13-1.16c0.09-0.95-1.01-1.51-1.93-1.8c-2.28-0.72-4.57-1.44-6.85-2.16"/>
	<path class="st36" d="M121.06,31.6c0.73,0.42,1.61-0.24,2.12-0.91c0.55-0.71,1-1.5,1.34-2.33c0.15-0.37,0.29-0.75,0.55-1.05
		c0.4-0.44,1.09-0.6,1.64-0.37c0.55,0.23,0.93,0.82,0.91,1.42c-0.04,0.93-0.92,1.59-1.75,2.01c-1.79,0.9-3.79,1.39-5.79,1.41"/>
	<path class="st36" d="M120.05,31.97c1.15-0.24,2.16,0.69,3.11,1.39c1.56,1.14,3.48,1.76,5.41,1.75c0.46,0,0.99-0.07,1.25-0.45
		c0.31-0.45,0.06-1.1-0.38-1.42c-0.44-0.32-1.01-0.39-1.55-0.44c-2.07-0.22-4.14-0.45-6.21-0.67c-0.58-0.06-1.19-0.14-1.64-0.49"/>
	<path class="st36" d="M131.85,30.58c0.42-1.2,0.85-2.43,1.63-3.43c0.79-1,2-1.75,3.27-1.64c0.59,0.05,1.26,0.45,1.21,1.03
		c-0.02,0.24-0.16,0.44-0.31,0.63c-1.55,1.92-4.42,2.13-6.38,3.64"/>
	<path class="st36" d="M130.91,31.13c0.66-0.54,1.65-0.44,2.41-0.06s1.38,0.98,2.09,1.45c0.78,0.52,1.68,0.86,2.6,1.01
		c0.85,0.13,1.95-0.06,2.17-0.89c0.16-0.59-0.26-1.22-0.8-1.5c-0.55-0.28-1.18-0.31-1.8-0.32c-2.02-0.05-4.05-0.11-6.07-0.16"/>
	<path class="st36" d="M137.62,28.95c3.1,0.41,5.54,0.47,7.94,1.82c1.45,0.82,3.49,1.26,5.14,1.45c0.33,0.04,0.69,0.02,0.95-0.19
		c0.43-0.35,0.34-1.07-0.04-1.47c-0.38-0.4-0.95-0.55-1.49-0.67c-3.96-0.87-8.25-1.09-12.3-1.14"/>
	<path class="st36" d="M126.43,39.32c0.26-0.17-0.04-0.56-0.32-0.7c-1.69-0.83-3.56-1.26-5.44-1.25c-0.1,0.22-0.08,0.49,0.05,0.7
		c-1.58-0.17-3.19-0.03-4.71,0.41c0.41,0.12,0.76,0.41,0.95,0.79c-1.48,0.06-2.95,0.37-4.33,0.91c0.26,0.2,0.52,0.41,0.78,0.61
		c-1.79,0.24-3.53,0.82-5.1,1.7c0.88,0.03,1.75,0.4,2.37,1.03c0.22,0.22,0.43,0.49,0.73,0.58c0.6,0.18,1.21-0.43,1.82-0.29
		c0.32,0.07,0.56,0.33,0.85,0.49c0.61,0.33,1.47,0.13,1.86-0.45c0.22,0.77,1.17,1.24,1.92,0.95c0.79-0.31,1.36-1.32,2.2-1.16
		c0.51,0.09,0.86,0.61,1.38,0.71c0.49,0.09,0.95-0.22,1.35-0.51c1.56-1.15,3.11-2.3,4.67-3.45"/>
	<path class="st36" d="M140.77,43.57c1.88-1.02,4.32-0.9,6.09,0.3c0.29,0.2,0.57,0.43,0.91,0.54c0.32,0.1,0.67,0.09,1,0.09
		c1.29,0.01,2.58,0.32,3.75,0.88c-0.32,0.03-0.62,0.24-0.76,0.53c0.42,0.19,0.84,0.39,1.26,0.58c0.2,0.09,0.43,0.21,0.5,0.42
		c0.18,0.52-0.62,0.77-1.17,0.73c0.89,0.56,1.78,1.12,2.67,1.68c0.29,0.18,0.6,0.39,0.7,0.71s-0.16,0.76-0.49,0.68
		c0.76,0.4,1.63,0.99,1.58,1.85c-0.96,0.27-1.91-0.37-2.89-0.56c-1.1-0.21-2.23,0.18-3.35,0.22s-2.46-0.48-2.63-1.58
		c0.12,0.05,0.08,0.26-0.04,0.3s-0.26-0.01-0.38-0.07c-0.99-0.49-1.93-1.09-2.79-1.79c0.12,0.24,0.26,0.46,0.42,0.67
		c-1.05,0.11-2.03-0.59-2.67-1.43c-0.64-0.84-1.05-1.83-1.66-2.7c-0.4-0.57-0.93-1.11-1.61-1.26"/>
	<path class="st48" d="M130.43,37.12c-0.95-1.14-3.18-0.5-3.38,0.96c-0.04,0.27-0.03,0.56-0.21,0.76c-0.2,0.22-0.55,0.23-0.85,0.22
		c-2.02-0.04-4.04,0.36-5.89,1.17c-0.63,0.27-1.33,0.79-1.2,1.46c0.08,0.39,0.43,0.66,0.77,0.88c1.01,0.64,2.13,1.12,3.3,1.39
		c-0.92,0.12-1.47,1.22-1.27,2.13c0.2,0.91,0.93,1.61,1.72,2.09c1.26,0.76,2.75,1.12,4.22,1.02c0.82-0.06,1.83-0.53,1.72-1.35
		c-0.6,1.43,0.51,2.99,1.68,4.02c1.01,0.89,2.16,1.69,3.48,1.98c1.32,0.29,2.83-0.03,3.7-1.07c0.86-1.04,0.8-2.82-0.32-3.58
		c1.67-0.51,3.79,0.8,5.08-0.37c0.76-0.7,0.72-1.97,0.19-2.86c-0.54-0.88-1.44-1.47-2.31-2.03c0.74,0.21,1.59,0.41,2.25,0
		c0.66-0.42,0.85-1.36,0.58-2.09c-0.27-0.73-0.9-1.28-1.57-1.68c-1.3-0.77-2.87-1.09-4.37-0.89c-0.28-1.64-1.6-3.05-3.22-3.44
		c-1.62-0.39-3.44,0.26-4.44,1.59"/>
	<path class="st50" d="M128.53,41.98c-2.34-0.73-4.85-0.93-7.28-0.57c0.51-0.35,0.8-0.56,1.42-0.59c1.85-0.08,3.7,0,5.53,0.23
		c0.32,0.04,0.66,0.1,0.87,0.34c0.21,0.24,0.15,0.71-0.16,0.77"/>
	<path class="st50" d="M128.7,37.87c1.17,0.61,2.16,1.54,2.86,2.66c-0.09-0.63-0.49-1.18-0.98-1.58s-1.08-0.67-1.66-0.93"/>
	<path class="st50" d="M133.88,39.93c-0.02-0.98-0.19-1.96-0.48-2.9c0.37-0.29,0.95,0.02,1.11,0.45s0.04,0.92-0.09,1.37
		c-0.12,0.44-0.24,0.87-0.36,1.31"/>
	<path class="st50" d="M137.15,41.6c0.95-0.27,1.92-0.44,2.91-0.53c0.87-0.08,1.83-0.06,2.51,0.48c-1.74,0.49-3.62,0.5-5.37,0.04"/>
	<path class="st50" d="M136.95,45.46c1.09,1.1,2.38,2,3.79,2.64c0.2-0.15,0.03-0.47-0.16-0.64c-1.06-0.99-2.35-1.73-3.74-2.16"/>
	<path class="st50" d="M132.92,47.21c0.33,0.96,0.65,1.92,0.98,2.89c0.17,0.52,0.38,1.07,0.84,1.36c0.1,0.06,0.23,0.11,0.35,0.08
		c0.33-0.09,0.22-0.59,0.03-0.88c-0.41-0.64-0.83-1.28-1.24-1.91c-0.32-0.49-0.65-1.04-0.59-1.62"/>
	<path class="st50" d="M128.11,45.15c-1.31,0.21-2.62,0.42-3.93,0.64c-0.17,0.03-0.35,0.06-0.49,0.17s-0.2,0.32-0.09,0.46
		c0.1,0.13,0.28,0.13,0.44,0.12c1.28-0.09,2.54-0.4,3.71-0.92"/>
	<path class="st50" d="M130.2,41.41c-0.43,0.07-0.86,0.15-1.24,0.35c-0.38,0.21-0.7,0.58-0.72,1.01c-0.01,0.14,0.01,0.28-0.05,0.4
		c-0.09,0.16-0.3,0.2-0.43,0.34c-0.24,0.25-0.06,0.69,0.23,0.88s0.65,0.24,0.96,0.4c0.87,0.44,1.22,1.64,2.15,1.93
		c0.56,0.17,1.27,0,1.66,0.43c0.27-0.43,0.82-0.66,1.32-0.55c0.25,0.05,0.5,0.19,0.76,0.16c0.26-0.03,0.5-0.34,0.34-0.54
		c0.36-0.08,0.73-0.17,1.09-0.25c0.37-0.09,0.77-0.19,1-0.49c0.23-0.3,0.14-0.85-0.24-0.91c0.35,0.24,0.82-0.25,0.72-0.66
		s-0.52-0.65-0.91-0.81c0.12-0.11,0.3-0.09,0.46-0.1c0.16-0.01,0.35-0.13,0.31-0.28c-0.02-0.06-0.07-0.11-0.12-0.15
		c-0.46-0.4-0.91-0.79-1.37-1.19c0.16,0.06,0.34-0.06,0.39-0.23s0.01-0.34-0.05-0.5c-0.16-0.43-0.42-0.84-0.83-1.05
		c-0.41-0.21-0.97-0.14-1.24,0.23c-0.4-0.28-0.83-0.57-1.32-0.6c-0.49-0.03-1.04,0.31-1.04,0.8c-0.58,0.06-1.16,0.15-1.74,0.25
		c-0.25,0.05-0.53,0.11-0.68,0.33c-0.14,0.21,0,0.59,0.25,0.56"/>
	<path class="st40" d="M133.19,41.32c-0.37,0-0.71-0.21-1.05-0.34c-0.35-0.13-0.78-0.19-1.05,0.07s-0.1,0.85,0.26,0.79
		c-0.99-0.02-1.98,0.5-2.52,1.33c-0.07,0.11-0.13,0.22-0.13,0.35c0.02,0.59,1.17,0.35,1.39,0.89c0.06,0.15,0.03,0.31,0.03,0.47
		c0,0.59,0.47,1.14,1.06,1.23c0.58,0.09,1.2-0.3,1.37-0.86c0.25,0.49,0.86,0.77,1.4,0.65c0.54-0.12,0.96-0.64,0.97-1.19
		c0.16,0.56,0.94,0.83,1.41,0.48s0.43-1.18-0.07-1.48c0.27,0.25,0.75-0.09,0.74-0.46c-0.01-0.37-0.3-0.66-0.6-0.88
		c-0.62-0.46-1.34-0.78-2.09-0.93c0.29,0.1,0.64-0.05,0.77-0.33c-0.63-0.98-2.21-1.14-3.03-0.32c-0.08,0.08-0.16,0.19-0.15,0.31
		c0.02,0.12,0.19,0.19,0.25,0.09"/>
	<path class="st51" d="M133.29,42.21c-0.2,0-0.38-0.11-0.57-0.18c-0.19-0.07-0.42-0.1-0.57,0.04c-0.15,0.13-0.05,0.46,0.14,0.42
		c-0.53-0.01-1.06,0.27-1.35,0.71c-0.04,0.06-0.07,0.12-0.07,0.19c0.01,0.32,0.63,0.19,0.75,0.48c0.03,0.08,0.02,0.17,0.02,0.25
		c0,0.32,0.25,0.61,0.57,0.66c0.31,0.05,0.64-0.16,0.74-0.46c0.14,0.26,0.46,0.41,0.75,0.35c0.29-0.07,0.52-0.34,0.52-0.64
		c0.08,0.3,0.5,0.44,0.75,0.26c0.25-0.19,0.23-0.63-0.04-0.8c0.15,0.13,0.4-0.05,0.4-0.25s-0.16-0.36-0.32-0.47
		c-0.33-0.25-0.72-0.42-1.12-0.5c0.15,0.05,0.34-0.03,0.41-0.18c-0.34-0.52-1.19-0.61-1.63-0.17c-0.04,0.04-0.09,0.1-0.08,0.16
		c0.01,0.06,0.1,0.1,0.14,0.05"/>
	<g>
		<path class="st46" d="M100.04,45.55c0.81,1.27,1.49,2.62,2.03,4.02c0.21-0.05,0.41-0.15,0.6-0.26c1.76-0.97,3.51-1.93,5.27-2.9
			c0.21-0.12,0.43-0.24,0.55-0.45c0.28-0.5-0.21-1.11-0.73-1.33c-0.46-0.2-1.04-0.24-1.43,0.07c-0.16,0.12-0.3,0.3-0.5,0.3
			c-0.12,0-0.23-0.08-0.33-0.14c-0.47-0.31-0.98-0.54-1.52-0.7c-0.42-0.12-0.91-0.18-1.28,0.05s-0.49,0.87-0.12,1.1
			c-0.48-0.61-1.3-0.94-2.07-0.82c-0.15,0.02-0.31,0.06-0.42,0.17c-0.17,0.17-0.18,0.46-0.08,0.68c0.1,0.22,0.29,0.39,0.47,0.55"/>
		<path class="st51" d="M102.13,49.44c0.06-0.62-0.29-1.2-0.69-1.67c-0.4-0.48-0.86-0.92-1.11-1.48c0.39-0.27,0.96-0.24,1.31,0.08
			c0.07,0.06,0.14,0.14,0.23,0.14c0.09,0,0.17-0.07,0.24-0.13c0.35-0.3,0.88-0.37,1.3-0.18c0.05,0.16,0.03,0.34-0.04,0.48
			c0.34,0.12,0.7-0.02,1.06-0.04c0.36-0.02,0.8,0.19,0.77,0.55c-0.83,0.49-1.64,1.01-2.42,1.58c-0.28,0.2-0.58,0.45-0.59,0.79"/>
	</g>
	<g>
		<path class="st46" d="M92.32,19.55c1.5,0.1,3.01,0.06,4.5-0.13c0.06,0.21,0.06,0.43,0.06,0.65c-0.01,2.01-0.02,4.01-0.04,6.02
			c0,0.24-0.01,0.49-0.14,0.7c-0.31,0.48-1.07,0.35-1.52-0.01c-0.39-0.31-0.7-0.8-0.62-1.29c0.03-0.2,0.12-0.41,0.02-0.59
			c-0.06-0.11-0.18-0.17-0.29-0.23c-0.49-0.26-0.95-0.6-1.34-1c-0.31-0.31-0.59-0.71-0.57-1.15c0.03-0.44,0.53-0.84,0.91-0.63
			c-0.77-0.13-1.44-0.7-1.71-1.43c-0.05-0.14-0.09-0.3-0.05-0.45c0.07-0.23,0.32-0.38,0.56-0.39c0.24-0.02,0.48,0.07,0.71,0.15"/>
		<path class="st51" d="M96.73,19.53c-0.51,0.34-1.19,0.31-1.8,0.19c-0.61-0.12-1.21-0.32-1.83-0.26c-0.05,0.47,0.25,0.95,0.69,1.11
			c0.09,0.03,0.19,0.06,0.24,0.14c0.05,0.08,0.02,0.18,0,0.28c-0.09,0.45,0.09,0.95,0.46,1.23c0.16-0.03,0.31-0.13,0.4-0.27
			c0.26,0.24,0.32,0.63,0.47,0.95c0.15,0.32,0.55,0.61,0.85,0.41c0.03-0.96,0.11-1.93,0.23-2.88c0.04-0.34,0.12-0.72,0.42-0.9"/>
	</g>
	<circle class="st51" cx="89.06" cy="19.47" r="0.44"/>
	<circle class="st51" cx="94.92" cy="28.65" r="0.44"/>
	<circle class="st51" cx="105.32" cy="42.8" r="0.44"/>
	<circle class="st51" cx="98.91" cy="23.48" r="0.64"/>
	<circle class="st51" cx="98.13" cy="46.23" r="0.64"/>
	<circle class="st51" cx="107.56" cy="41.26" r="0.64"/>
	<path class="st51" d="M79.22,48.61c-2.01,0.32-2.93,0.66-5,0.45c-0.55-0.06-1.12,0.17-1.65,0.01s-1-0.68-0.92-1.23
		s0.9-0.88,1.24-0.44c-0.01-0.56,0.15-1.3,0.71-1.32c0.22-0.01,0.43,0.12,0.64,0.09c0.47-0.05,0.58-0.67,0.57-1.14
		c0.6,0,1.19,0.07,1.77,0.21c0.29-0.59,0.89-1.01,1.54-1.08c0.4-0.04,0.82,0.04,1.21-0.08s0.69-0.62,0.44-0.94
		c0.43,0.28,1.02,0.14,1.47-0.11c0.45-0.25,0.85-0.61,1.35-0.76c0.64-0.19,1.35-0.01,1.92,0.33c0.09-0.51,0.68-0.77,1.2-0.79
		c0.52-0.02,1.05,0.1,1.54-0.05c0.38-0.11,0.83-0.37,1.14-0.12c0.34,0.28,0.1,0.83-0.17,1.17c-2.36,2.98-3.02,3.59-6.95,4.92"/>
	<path class="st52" d="M124.01,22.01c-0.99,1.07-2.62,3.38-3.61,4.46"/>
	<path class="st52" d="M128.34,22.35c-0.14,1.45,0.04,2.94,0.53,4.32"/>
	<path class="st52" d="M132.38,22.49c0.79,0.81,1.36,1.84,1.63,2.94"/>
	<path class="st52" d="M136.17,22.58c1.35,0.38,2.55,1.3,3.27,2.5c0.05,0.08,0.09,0.19,0.02,0.25c-0.07,0.06-0.15-0.12-0.06-0.1"/>
	<path class="st52" d="M140.8,22.26c1.73,0.26,3.4,0.95,4.8,2c-0.16-0.05-0.31-0.1-0.47-0.15"/>
	<path class="st52" d="M122.13,22.07c-1.93,0.06-3.84,0.57-5.54,1.48"/>
	<path class="st44" d="M132.64,19.62c-4.35-0.3-8.77,0.47-12.76,2.22c-0.44,0.19-0.96,0.56-0.82,1.02c0.92,0.41,2,0.45,2.95,0.1
		c0.73-0.27,1.65-0.73,2.19-0.16c0.21,0.22,0.27,0.54,0.41,0.82c0.43,0.85,1.72,1.07,2.42,0.43c0.28-0.26,0.45-0.61,0.73-0.88
		c0.27-0.26,0.73-0.42,1.03-0.18c0.17,0.14,0.24,0.36,0.32,0.57c0.26,0.66,0.78,1.26,1.46,1.46s1.53-0.12,1.79-0.79
		c0.09-0.25,0.11-0.53,0.29-0.73c0.47-0.52,1.26,0.1,1.82,0.52c0.69,0.51,1.94,0.51,2.16-0.32c0.05-0.2,0.04-0.42,0.13-0.6
		c0.27-0.49,1.01-0.25,1.51,0c1.21,0.59,2.6,0.83,3.94,0.66c0.69-0.08,1.55-0.63,1.23-1.25c-0.15-0.29-0.5-0.4-0.81-0.49
		c-3.52-0.93-7.06-1.74-10.64-2.42"/>
	<path class="st51" d="M132.2,19.35c-2.67-0.53-5.44-0.51-8.1,0.07c-0.26,0.06-0.53,0.12-0.74,0.3c-0.2,0.17-0.32,0.48-0.19,0.72
		c0.08,0.15,0.24,0.23,0.4,0.29c0.83,0.3,1.75-0.02,2.63-0.07c0.11-0.01,0.23-0.01,0.32,0.07c0.1,0.08,0.12,0.22,0.18,0.34
		c0.14,0.26,0.51,0.3,0.78,0.18c0.27-0.12,0.45-0.37,0.63-0.6c0.18,0.33,0.39,0.69,0.74,0.83c0.35,0.13,0.86-0.15,0.77-0.52
		c0.32,0.26,0.59,0.63,0.99,0.74c0.4,0.12,0.94-0.29,0.73-0.64c0.31,0.34,0.68,0.72,1.14,0.71c0.46-0.01,0.82-0.7,0.43-0.94
		c0.16,0.25,0.32,0.5,0.57,0.65s0.61,0.15,0.8-0.08c0.07-0.09,0.11-0.2,0.19-0.27c0.2-0.18,0.5-0.05,0.75,0.04
		c0.35,0.13,0.73,0.19,1.1,0.16c0.13-0.01,0.27-0.04,0.35-0.14c0.07-0.11,0-0.3-0.12-0.28c0.37,0.05,0.74,0.04,1.11-0.03
		c0.12-0.02,0.26-0.07,0.31-0.18c0.1-0.21-0.17-0.39-0.39-0.47c-1.94-0.66-3.96-1.09-6-1.29c-0.63-0.06-1.41-0.02-1.7,0.55"/>
	<circle class="st48" cx="116.6" cy="23.67" r="0.64"/>
	<circle class="st48" cx="120.4" cy="26.47" r="0.64"/>
	<circle class="st48" cx="128.87" cy="26.66" r="0.64"/>
	<circle class="st48" cx="133.99" cy="25.61" r="0.64"/>
	<circle class="st48" cx="139.39" cy="25.24" r="0.64"/>
	<circle class="st48" cx="145.14" cy="24.11" r="0.64"/>
	<g>
		<path class="st53" d="M152.97,36.28c0.34,0.36,0.55,0.85,0.57,1.35c0.01,0.19-0.01,0.39,0.04,0.58c0.05,0.19,0.2,0.36,0.39,0.37
			c0.27,0.01,0.48-0.3,0.75-0.28c0.05,0.55,0.17,1.22,0.7,1.4c0.32,0.11,0.67-0.01,1,0.07c0.29,0.07,0.52,0.27,0.78,0.41
			c0.26,0.13,0.55,0.2,0.83,0.27c0.65,0.15,1.3,0.3,1.95,0.44c-0.23-0.81-0.76-1.52-1.48-1.96c0.05-0.24-0.11-0.47-0.31-0.61
			s-0.44-0.2-0.65-0.31c-0.42-0.2-0.78-0.53-1-0.93c-0.09-0.15-0.15-0.32-0.26-0.46c-0.1-0.13-0.22-0.23-0.35-0.31
			c-0.88-0.58-2.12-0.58-3,0.01"/>
		<path class="st53" d="M152.12,35.2c-0.49,0.12-1.01,0.04-1.51,0c-0.81-0.06-1.63-0.01-2.42,0.15c-0.32-0.5-0.63-1-0.95-1.5
			c-0.21,0.23-0.61,0.03-0.76-0.24c-0.15-0.27-0.2-0.6-0.41-0.83c-0.1-0.11-0.24-0.19-0.29-0.32c-0.06-0.14-0.01-0.3-0.04-0.45
			c-0.11-0.54-1.1-0.59-1.08-1.14c0.51-0.01,0.97,0.3,1.43,0.5c0.71,0.32,1.52,0.42,2.29,0.28c0.16-0.03,0.37-0.04,0.44,0.1
			c0.1,0.2-0.17,0.43-0.09,0.63c0.24,0.06,0.5-0.02,0.75-0.04s0.55,0.04,0.66,0.26c0.08,0.15,0.05,0.34,0.16,0.48
			c0.23,0.29,0.81,0.02,1.03,0.32c0.11,0.14,0.09,0.38,0.25,0.46c0.16,0.07,0.37-0.07,0.5,0.04c0.04,0.04,0.06,0.1,0.08,0.15
			c0.11,0.4,0.13,0.83,0.06,1.23"/>
		<path class="st51" d="M150.8,35.04c-0.67,0.43-1.37,0.88-2.17,0.92s-1.68-0.5-1.71-1.29c-0.04-0.81,0.75-1.39,1.48-1.74
			c0.73-0.35,1.71-0.58,2.27,0.01c0.3,0.32,0.43,0.83,0.84,0.98c0.54-1.02,1.66-1.58,2.7-2.07c0.41-0.19,0.82-0.39,1.27-0.44
			c0.45-0.05,0.94,0.08,1.22,0.43c0.28,0.35,0.3,0.86,0.14,1.27c-0.16,0.42-0.48,0.76-0.81,1.05c-0.68,0.59-1.68,1.04-2.47,0.62
			c0.92,0.3,2.05-0.12,2.83,0.45c0.56,0.41,0.71,1.23,0.47,1.88c-0.24,0.65-0.81,1.14-1.43,1.45c-0.32,0.16-0.67,0.29-1.04,0.31
			c-1,0.05-1.84-0.71-2.56-1.41c-0.22,0.35,0.26,0.75,0.27,1.16c0,0.25-0.18,0.47-0.36,0.64c-0.92,0.89-2.32,1.38-3.49,0.89
			c-0.35-0.15-0.68-0.39-0.84-0.73c-0.28-0.59,0.01-1.32,0.5-1.77c0.48-0.44,1.11-0.68,1.71-0.95c0.6-0.27,1.2-0.62,1.52-1.19
			c0.03-0.06,0.06-0.13,0.03-0.19s-0.15-0.04-0.14,0.02"/>
		<path class="st44" d="M152.13,36.02c-0.11,1.02-1.01,1.75-1.91,2.25c-0.77,0.43-1.73,0.77-2.52,0.37
			c-0.83-0.43-1.08-1.61-0.67-2.45c0.41-0.84,1.31-1.36,2.23-1.53c0.92-0.18,1.87-0.06,2.8,0.05c-0.79-0.12-1.49-0.7-1.75-1.45
			c-0.26-0.75-0.07-1.64,0.47-2.22c0.32-0.34,0.75-0.57,1.19-0.76c0.55-0.24,1.13-0.42,1.73-0.38c0.59,0.04,1.2,0.33,1.48,0.85
			c0.31,0.57,0.18,1.3-0.16,1.86c-0.34,0.55-0.86,0.97-1.37,1.38c0.88-0.57,1.84-1.16,2.9-1.12c1.05,0.04,2.11,1.05,1.79,2.05
			c-0.2,0.62-0.83,0.99-1.42,1.27c-0.55,0.26-1.12,0.5-1.73,0.54s-1.25-0.13-1.66-0.58c0.07,0.41,0.57,0.56,0.85,0.87
			c0.41,0.45,0.27,1.2-0.13,1.65c-0.4,0.45-0.99,0.67-1.56,0.88c-0.36,0.13-0.72,0.26-1.1,0.24s-0.77-0.25-0.87-0.61
			c-0.07-0.26,0.02-0.53,0.12-0.78c0.21-0.51,0.49-1,0.82-1.44c0.05-0.07,0.1-0.16,0.05-0.23s-0.17,0.08-0.08,0.08"/>
		<path class="st54" d="M152.83,35.27c0.17-0.29,0.22-2.13,0.21-2.46s0-2.01,0.31-2.11"/>
		<path class="st54" d="M156.39,34.19c-0.85,0.25-1.78,0.27-2.6,0.6c-0.9,0.36-1.5,0.95-2.48,1.22c-1.01,0.28-1.97,0.7-2.87,1.25"/>
		<path class="st54" d="M152.18,39.59"/>
		<path class="st54" d="M152.32,39.64"/>
		<path class="st54" d="M152.63,35.25c-0.36,0.4-0.42,0.98-0.46,1.52c-0.06,0.86-0.12,1.74,0.12,2.57"/>
		<path class="st40" d="M151.96,34.4c-0.4,0.04-0.78,0.23-1.06,0.53c-0.04,0.05-0.08,0.1-0.1,0.16c-0.03,0.17,0.17,0.3,0.34,0.27
			c0.17-0.04,0.29-0.18,0.38-0.32c-0.31,0.07-0.59,0.26-0.77,0.52c-0.12,0.17-0.19,0.41-0.06,0.57c0.12,0.17,0.47,0.07,0.42-0.13
			c-0.33,0.09-0.4,0.61-0.12,0.79c0.29,0.18,0.72-0.12,0.66-0.45c-0.24-0.08-0.43,0.3-0.29,0.51c0.15,0.21,0.45,0.24,0.7,0.19
			c0.17-0.04,0.33-0.12,0.42-0.26c0.09-0.14,0.08-0.36-0.07-0.45c-0.11,0.02-0.19,0.15-0.14,0.26c0.21,0.09,0.45,0.17,0.66,0.1
			c0.22-0.07,0.37-0.37,0.2-0.53c0.15,0.25,0.52,0.34,0.77,0.18s0.33-0.52,0.18-0.77c-0.06-0.09-0.16-0.17-0.27-0.17
			c-0.11,0.01-0.21,0.13-0.16,0.23c0.02,0.05,0.08,0.08,0.13,0.1c0.26,0.11,0.59,0.04,0.79-0.16s0.27-0.52,0.16-0.79
			c-0.06-0.14-0.3-0.25-0.34-0.1c0.22,0.01,0.38-0.26,0.3-0.47c-0.08-0.21-0.31-0.32-0.53-0.32s-0.43,0.09-0.63,0.18
			c0.07,0.17,0.38,0.1,0.41-0.08c0.03-0.18-0.14-0.35-0.33-0.38s-0.37,0.05-0.54,0.13c-0.4,0.19-0.77,0.44-1.11,0.73"/>
	</g>
	<path class="st51" d="M150.59,70.72c1.47-1.89,3.65-3.21,6-3.65c-0.37,0.62-0.74,1.24-1.11,1.86c0.79-0.67,1.61-1.36,2.61-1.63
		c1-0.27,2.22-0.01,2.75,0.88c-0.7,0.47-1.41,0.93-2.11,1.4c0.73,0.48,1.47,0.96,2.2,1.43c-0.58,0.2-1.11,0.55-1.52,1
		c0.71,0.01,1.41,0.31,1.9,0.82c-0.73,0.46-1.46,0.91-2.2,1.37c1.03-0.01,2.07,0.19,3.03,0.57c-1.34,0.74-2.43,1.92-3.08,3.31
		c2.46,0.06,5.31,0.32,6.69,2.35c-0.43,0.19-0.87,0.39-1.3,0.58c0.48,0.09,0.97,0.18,1.45,0.27c-1.02,0.35-2.05,0.71-3.07,1.06
		c0.67,0.35,1.35,0.71,2.02,1.06c-2.45,1.52-5.46,2.13-8.31,1.69c2,1.18,4.01,2.36,6.01,3.54c-0.72,0.68-1.55,1.25-2.45,1.67
		c1.49-0.22,2.51,1.48,2.78,2.96c0.04,0.25,0.07,0.52-0.05,0.74c-0.09,0.16-0.26,0.27-0.42,0.36c-1.73,1.05-3.46,2.1-5.19,3.15
		c-0.78,0.47-1.65,0.96-2.54,0.81c-1.28-0.22-1.96-1.6-2.45-2.8c-1.18-2.96-2.38-5.98-2.6-9.16c-0.1-1.42,0-2.87-0.33-4.26
		c-0.3-1.26-0.95-2.43-1.06-3.71c-0.14-1.53,0.49-3.02,1.13-4.42c0.63-1.38,1.28-2.75,1.94-4.11"/>
	<path class="st46" d="M140.49,95.78c-1.4-5.11-1.97-5.27-2.53-10.54c-0.56-5.26-0.02-10.81,2.6-15.4c2.06-3.6,5.28-6.43,8.87-8.51
		c1.4-0.81,2.92-1.54,4.54-1.61s3.36,0.64,4.11,2.08c0.65,1.26,0.41,2.83-0.29,4.06s-1.8,2.18-2.93,3.04
		c-1.59,1.21-1.33,0.72-3.09,1.67c1.02,0.02,2.8,0.14,3.82,0.17c1.59,0.04,4.33-0.1,5.81,0.5c1.48,0.59,2.79,1.86,2.96,3.44
		c0.23,2.02-5.28,5.5-7.18,6.23c-1.9,0.73-1.06,0.42-3.09,0.61c2.54-0.12,2.16,0.24,4.68,0.55c2.09,0.25,4.41,0.81,5.52,2.61
		c1.47,2.38-0.22,5.73-2.78,6.87c-2.56,1.13-5.54,0.6-8.2-0.3c1.75,0.52,3.47,1.3,4.77,2.59c1.3,1.29,2.13,3.14,1.86,4.94
		c-0.28,1.87-1.68,3.43-3.34,4.32c-1.67,0.89-2.35,0.32-5.67-0.18C148.48,102.55,143.64,100.59,140.49,95.78"/>
	<path class="st48" d="M139.34,83.19c-0.9-4.42-1.58-9.01-0.62-13.41c0.97-4.4,3.9-8.63,8.21-9.96c-0.26,0.69-0.52,1.37-0.79,2.06
		c1.32,0.64,1.04,2.58,0.56,3.97c0.95,0.23,1.86,0.61,2.7,1.11c0.24,0.15,0.49,0.32,0.61,0.58c0.54,1.15-1.81,1.92-1.65,3.18
		c0.1,0.86,1.29,1.18,1.55,2c0.37,1.16-1.3,2.19-1.03,3.37c0.26,1.1,2.1,1.77,1.59,2.78c-0.22,0.43-0.78,0.57-1.04,0.97
		c-0.81,1.26,2.07,2.94,1.01,4c-0.35,0.35-1.05,0.4-1.15,0.9c-0.05,0.24,0.09,0.48,0.24,0.69c0.57,0.82,1.24,1.57,1.99,2.22
		c-0.25,0.45-0.76,0.74-1.27,0.72c0.36,1.44,0.09,3.02-0.72,4.26c0.88,0.64,1.83,1.88,1.05,2.64c-0.15,0.15-0.36,0.25-0.47,0.43
		c-0.3,0.48,0.25,1.03,0.45,1.56c0.15,0.4,0.09,0.83,0.03,1.25c-0.13,0.95-0.26,1.9-0.39,2.85c0.36,0.84,0.72,1.68,1.08,2.52
		c-2.41,0.38-4.9-0.53-6.78-2.08c-1.88-1.55-3.19-3.69-4.15-5.94c-1.82-4.26-2.42-9.04-1.72-13.62c0.15-0.96,0.34-1.99-0.1-2.86"/>
	<path class="st44" d="M137.31,81.51c0.29-2.61-1.16-5.08-1.58-7.67c-0.44-2.76,0.31-5.61,1.59-8.09c1.28-2.48,3.08-4.66,4.86-6.82
		c-1.57,3.93,0.38,8.37,0.02,12.58c-0.34,3.98-1.58,7.22-3.87,10.5c0.11-0.06-0.91,0.11-0.81,0.04c1.37-2.86,3.01-5.02,5.73-6.66
		s5.71-2.73,8.69-3.82c-0.7,3.32-1.64,6.77-3.98,9.22c-3.12,3.26-6.99,4.26-10.85,1.93"/>
	<path class="st44" d="M136.98,85.3c-0.6,0.66-0.82,1.58-0.97,2.46c-0.51,3.09-0.35,6.35,0.91,9.22c1.25,2.87,3.69,5.29,6.71,6.13
		c0.17-1.88,0.28-3.76,0.34-5.64c0.04-1.23,0.06-2.47-0.21-3.67c-0.43-1.91-1.56-3.61-2.95-5.01S138.6,86.42,136.98,85.3"/>
	<path class="st44" d="M136.39,82.65c0.13-0.24,0.44,0.12,0.45,0.4c0.07,1.71,0.46,3.4,1.14,4.96c0.61,1.41,1.47,2.73,2.64,3.73
		c1.58,1.35,3.61,2.02,5.62,2.54c1.91,0.49,3.85,0.87,5.81,1.13c-0.5-0.24-0.68-0.86-0.83-1.39c-1.64-5.76-6.74-10.39-12.64-11.46
		c-1.05-0.19-1.12-0.76-1.91-0.05"/>
</g>
<g id="Layer_3">
	<g>
		<path class="st55" d="M28.58,155.48c1.48,0.79,1.34,1.43,2.51,2.63c1.94,1.98,6.62,6.41,9.1,5.17c5.31-2.65,3.85-5.47,3.98-8.13
			s-1.22-7.18-0.66-9.79c0.98-4.61,13.27-8.46,14.6-3.63c0.76,2.77,2.41,5.23,3.02,8.04c0.29,1.31,0.48,2.73-0.07,3.96
			c-0.55,1.23-2.08,2.1-3.28,1.49c-0.34-3.2-1.07-6.35-2.17-9.38c-0.34-0.93-0.74-1.89-1.52-2.5c-1.54-1.19-3.96-0.4-5.08,1.18
			c-1.13,1.58-1.26,3.66-1.14,5.6c0.12,1.94,0,3.87,0.09,5.81c0.35,8.16-3.79,11.15-9.1,10.98s-11.21-5.47-14.26-8.24
			C24.6,158.68,28.2,155.28,28.58,155.48z"/>
		<path class="st55" d="M20.55,129.84c-2.19,1.12-3.79,3.18-4.78,5.43c-2.57,5.85,6.84,21.37,7.74,20.7l1.55-2.66
			c7.36-9.6,18.77-16.66,30.86-16.43c0.18-1.79-0.56-5.33-0.56-5.33s-5.75,1.66-8.21,2.68c-6.41,2.67-15.07,7.78-15.43,4.98
			c-0.31-2.4-2.2-7.73-4.17-9.13C25.55,128.68,22.74,128.72,20.55,129.84z M24.93,133.09c2.99,1.66,4.48,10.45,4.48,10.45
			l-6.16,6.49c0,0-3.56-6.38-4.16-10.98C18.51,134.44,21.95,131.43,24.93,133.09z"/>
		<path class="st55" d="M21.64,104.32c-1.61,1.43-2.66,3.36-3.56,5.31c-2.63,5.64-4.35,11.72-5.05,17.9c0,0,6.06-1.43,9.17-2.49
			c6.39-2.19,13.43-1.63,19.98,0.04c1.97,0.5,3.92,1.1,5.83,1.8c0.88,0.32,1.77,0.66,2.71,0.69c0.93,0.03,1.94-0.33,2.43-1.13
			c0.85-1.39-0.24-3.16-0.18-4.79c-4.46-0.18-8.8-1.36-13.11-2.53c-0.81-0.22-1.64-0.45-2.31-0.94c-1.83-1.33-1.65-4.63,0.36-5.64
			c0.8-0.4,1.73-0.44,2.63-0.45c2.4-0.03,4.81,0.11,7.19,0.42c1.64,0.21,3.55,0.42,4.71-0.76c0.93-0.95,0.99-2.42,0.99-3.75
			c0-0.32,0-0.65-0.15-0.94c-0.34-0.66-1.23-0.74-1.97-0.73c-5.16,0.09-10.31,0.73-15.34,1.9c-0.49,0.11-1,0.23-1.49,0.11
			c-0.48-0.13-0.87-0.48-1.21-0.84c-1.75-1.82-3.24-4.16-5.67-4.85C25.52,102.06,23.25,102.9,21.64,104.32z M29.41,109.53
			c3.15,3.98,1,10.45,1,10.45c-7.96,0-13.27,3.18-13.27,3.18C21.45,106.01,26.26,105.55,29.41,109.53z"/>
		<path class="st55" d="M31.58,100.82c0.29,0.51,0.64,1.03,1.16,1.3s1.23,0.24,1.63-0.19c0.23-0.25,0.32-0.59,0.4-0.93
			c0.16-0.72,0.26-1.46,0.29-2.2c0.04-1.02-0.14-2.22-1.04-2.7c-0.57-0.31-1.3-0.21-1.86,0.12c-0.56,0.34-0.96,0.88-1.24,1.46
			C30.92,97.68,30.31,98.58,31.58,100.82z"/>
		<path class="st55" d="M35.72,102.56c1.11-1.99,1.38-3.85,1.03-6.11c0.78,0.54,1.8,0.55,2.76,0.56c3.8,0.05,7.59,0.49,11.29,1.31
			c2.15,0.48,4.38,1.15,5.9,2.74c-0.71,1.09-1.41,2.17-2.12,3.26c-5.42-1.97-17.44-1.32-18.12-1.15L35.72,102.56z"/>
		<path class="st55" d="M46.17,88.13c6.8,0.33,14.43,4.48,14.43,4.48l-2.49,3.82c-6.97-4.31-24.22-4.48-24.22-4.48
			s2.49-6.64,5.47-6.97s15.93-2.49,15.93-2.49l-13.44-4.65l0.5-4.15c0,0,20.07,4.98,20.57,7.3s-0.83,5.14-2.32,4.98
			C59.11,85.8,46.17,88.13,46.17,88.13z"/>
		<path class="st55" d="M52.64,56.61c0,0-7.3-5.14-8.96,0.5c-1.66,5.64-3.98,8.96-0.83,11.61C46,71.37,61.6,79.83,64.91,72.53
			c3.32-7.3,1.82-10.12-0.66-11.28l4.65,1.66l1.66-3.15l-8.29-3.32l-3.32-1.49l-3.82,8.63l4.48,2.16l1-3.15c0,0,3.98,1.49,2.49,5.31
			s-2.16,5.47-9.12,1.66c-6.97-3.82-9.95-2.82-9.29-6.47c0.66-3.65,1-4.31,3.65-3.32c2.65,1,3.32,0.66,3.32,0.66L52.64,56.61z"/>
	</g>
	<g>
		<path class="st56" d="M28.58,155.48c1.48,0.79,1.34,1.43,2.51,2.63c1.94,1.98,6.62,6.41,9.1,5.17c5.31-2.65,3.85-5.47,3.98-8.13
			s-1.22-7.18-0.66-9.79c0.98-4.61,13.27-8.46,14.6-3.63c0.76,2.77,2.41,5.23,3.02,8.04c0.29,1.31,0.48,2.73-0.07,3.96
			c-0.55,1.23-2.08,2.1-3.28,1.49c-0.34-3.2-1.07-6.35-2.17-9.38c-0.34-0.93-0.74-1.89-1.52-2.5c-1.54-1.19-3.96-0.4-5.08,1.18
			c-1.13,1.58-1.26,3.66-1.14,5.6c0.12,1.94,0,3.87,0.09,5.81c0.35,8.16-3.79,11.15-9.1,10.98s-11.21-5.47-14.26-8.24
			C24.6,158.68,28.2,155.28,28.58,155.48z"/>
		<path class="st56" d="M20.55,129.84c-2.19,1.12-3.79,3.18-4.78,5.43c-2.57,5.85,6.84,21.37,7.74,20.7l1.55-2.66
			c7.36-9.6,18.77-16.66,30.86-16.43c0.18-1.79-0.56-5.33-0.56-5.33s-5.75,1.66-8.21,2.68c-6.41,2.67-15.07,7.78-15.43,4.98
			c-0.31-2.4-2.2-7.73-4.17-9.13C25.55,128.68,22.74,128.72,20.55,129.84z M24.93,133.09c2.99,1.66,4.48,10.45,4.48,10.45
			l-6.16,6.49c0,0-3.56-6.38-4.16-10.98C18.51,134.44,21.95,131.43,24.93,133.09z"/>
		<path class="st56" d="M21.64,104.32c-1.61,1.43-2.66,3.36-3.56,5.31c-2.63,5.64-4.35,11.72-5.05,17.9c0,0,6.06-1.43,9.17-2.49
			c6.39-2.19,13.43-1.63,19.98,0.04c1.97,0.5,3.92,1.1,5.83,1.8c0.88,0.32,1.77,0.66,2.71,0.69c0.93,0.03,1.94-0.33,2.43-1.13
			c0.85-1.39-0.24-3.16-0.18-4.79c-4.46-0.18-8.8-1.36-13.11-2.53c-0.81-0.22-1.64-0.45-2.31-0.94c-1.83-1.33-1.65-4.63,0.36-5.64
			c0.8-0.4,1.73-0.44,2.63-0.45c2.4-0.03,4.81,0.11,7.19,0.42c1.64,0.21,3.55,0.42,4.71-0.76c0.93-0.95,0.99-2.42,0.99-3.75
			c0-0.32,0-0.65-0.15-0.94c-0.34-0.66-1.23-0.74-1.97-0.73c-5.16,0.09-10.31,0.73-15.34,1.9c-0.49,0.11-1,0.23-1.49,0.11
			c-0.48-0.13-0.87-0.48-1.21-0.84c-1.75-1.82-3.24-4.16-5.67-4.85C25.52,102.06,23.25,102.9,21.64,104.32z M29.41,109.53
			c3.15,3.98,1,10.45,1,10.45c-7.96,0-13.27,3.18-13.27,3.18C21.45,106.01,26.26,105.55,29.41,109.53z"/>
		<path class="st56" d="M31.58,100.82c0.29,0.51,0.64,1.03,1.16,1.3s1.23,0.24,1.63-0.19c0.23-0.25,0.32-0.59,0.4-0.93
			c0.16-0.72,0.26-1.46,0.29-2.2c0.04-1.02-0.14-2.22-1.04-2.7c-0.57-0.31-1.3-0.21-1.86,0.12c-0.56,0.34-0.96,0.88-1.24,1.46
			C30.92,97.68,30.31,98.58,31.58,100.82z"/>
		<path class="st56" d="M35.72,102.56c1.11-1.99,1.38-3.85,1.03-6.11c0.78,0.54,1.8,0.55,2.76,0.56c3.8,0.05,7.59,0.49,11.29,1.31
			c2.15,0.48,4.38,1.15,5.9,2.74c-0.71,1.09-1.41,2.17-2.12,3.26c-5.42-1.97-17.44-1.32-18.12-1.15L35.72,102.56z"/>
		<path class="st56" d="M46.17,88.13c6.8,0.33,14.43,4.48,14.43,4.48l-2.49,3.82c-6.97-4.31-24.22-4.48-24.22-4.48
			s2.49-6.64,5.47-6.97s15.93-2.49,15.93-2.49l-13.44-4.65l0.5-4.15c0,0,20.07,4.98,20.57,7.3s-0.83,5.14-2.32,4.98
			C59.11,85.8,46.17,88.13,46.17,88.13z"/>
		<path class="st56" d="M52.64,56.61c0,0-7.3-5.14-8.96,0.5c-1.66,5.64-3.98,8.96-0.83,11.61C46,71.37,61.6,79.83,64.91,72.53
			c3.32-7.3,1.82-10.12-0.66-11.28l4.65,1.66l1.66-3.15l-8.29-3.32l-3.32-1.49l-3.82,8.63l4.48,2.16l1-3.15c0,0,3.98,1.49,2.49,5.31
			s-2.16,5.47-9.12,1.66c-6.97-3.82-9.95-2.82-9.29-6.47c0.66-3.65,1-4.31,3.65-3.32c2.65,1,3.32,0.66,3.32,0.66L52.64,56.61z"/>
	</g>
</g>
</svg>
